<svg width="168" height="168" viewBox="0 0 168 168" fill="none" xmlns="http://www.w3.org/2000/svg">
<path d="M26.0007 71.8718C25.9361 66.3542 30.4631 61.9606 35.9313 62.0917C41.2351 62.2198 45.4757 66.257 45.486 71.9484C45.4978 77.0756 41.329 81.8905 35.1677 81.6313C30.4675 81.4339 25.9669 77.4482 26.0007 71.8718Z" fill="url(#paint0_linear_519_835)"/>
<path d="M54.2742 107.3C53.7559 106.356 53.2669 105.503 52.8294 104.625C52.7633 104.491 52.8749 104.127 53.0041 104.058C54.264 103.392 55.5473 102.772 56.8219 102.128C58.4195 101.32 60.0097 100.495 61.6102 99.6891C62.5897 99.1972 63.5867 98.7435 64.5631 98.2486C66.2283 97.4032 67.8773 96.5283 69.5439 95.6872C70.8537 95.0259 72.187 94.4117 73.4997 93.7503C75.1281 92.9314 76.7301 92.0742 78.3673 91.2552C79.6889 90.591 81.0383 89.9768 82.3613 89.311C83.5757 88.7012 84.7651 88.0414 85.9765 87.4272C87.3773 86.7157 88.7928 86.0323 90.1995 85.3327C91.7912 84.5393 93.3815 83.7429 94.9703 82.9436C96.606 82.1217 98.2403 81.2989 99.8732 80.475C101.468 79.6752 103.067 78.8843 104.66 78.083C105.965 77.4261 107.263 76.7574 108.566 76.0975C109.936 75.3994 111.311 74.7032 112.689 74.009C114.557 73.0663 116.429 72.131 118.295 71.1869C119.884 70.3841 121.467 69.5667 123.057 68.7713C124.098 68.2484 125.151 67.7476 126.12 67.2733L127.602 70.3444C103.237 82.7359 78.6581 94.9184 54.2742 107.3Z" fill="url(#paint1_linear_519_835)"/>
<path d="M107.449 44.9691C106.218 44.985 104.998 44.7534 103.858 44.2882C102.719 43.823 101.684 43.1335 100.814 42.2605C99.9449 41.3874 99.2587 40.3485 98.7962 39.205C98.3337 38.0616 98.1042 36.8367 98.1214 35.6029C98.1977 30.3269 102.248 26.3501 107.406 26.3235C112.588 26.3044 116.665 30.243 116.737 35.731C116.802 40.6918 112.531 45.1296 107.449 44.9691Z" fill="url(#paint2_linear_519_835)"/>
<path d="M125.903 98.2913C131.189 98.2501 135.235 102.644 135.215 107.525C135.193 113.131 130.904 116.999 125.794 116.952C120.822 116.912 116.461 112.925 116.616 107.23C116.743 102.51 120.704 98.284 125.903 98.2913Z" fill="url(#paint3_linear_519_835)"/>
<path d="M125.693 63.6043C125.855 64.7576 126.012 65.7327 126.103 66.7136C126.117 66.8609 125.83 67.1747 125.662 67.1879C124.047 67.322 122.419 67.3882 120.798 67.509C118.385 67.6887 115.977 67.9052 113.564 68.0849C112.5 68.1645 111.429 68.1865 110.362 68.2425C108.569 68.3368 106.776 68.4252 104.986 68.5371C102.883 68.6711 100.782 68.8317 98.6808 68.979C96.725 69.1263 94.7691 69.2559 92.8162 69.4208C90.1936 69.6447 87.5741 69.9054 84.953 70.1352C84.0588 70.2133 83.1616 70.2368 82.2659 70.3031C79.0355 70.5417 75.805 70.7951 72.5673 71.0293C71.5761 71.1014 70.5791 71.1132 69.5865 71.1883C66.5234 71.4211 63.4633 71.6847 60.3988 71.9056C59.1125 71.9984 57.8189 71.9778 56.5341 72.0765C53.6678 72.2945 50.8074 72.5567 47.9397 72.7982C47.7928 72.81 47.6548 72.7982 47.5652 72.7982C47.4184 71.8173 47.2716 70.8908 47.1453 69.9629C47.0763 69.4753 47.2554 69.275 47.7899 69.2559C49.5843 69.194 51.3771 69.0865 53.1686 68.9716C55.2463 68.839 57.3226 68.677 59.3989 68.5297L65.4794 68.0879C67.5557 67.9396 69.6325 67.7923 71.7097 67.646L77.9415 67.2041C79.9698 67.0578 81.9972 66.9105 84.0235 66.7622C86.0998 66.612 88.1766 66.4647 90.2538 66.3204C92.2567 66.1731 94.2581 66.0258 96.261 65.8785C98.3637 65.7312 100.465 65.5839 102.575 65.4366C104.602 65.2923 106.63 65.145 108.657 64.9948L114.768 64.5529C116.824 64.4056 118.88 64.2804 120.924 64.1036C122.527 63.974 124.131 63.7722 125.693 63.6043Z" fill="url(#paint4_linear_519_835)"/>
<path d="M83.7504 125.246C88.5887 125.138 92.615 129.275 92.5372 134.14C92.452 139.384 88.5197 142.996 83.6946 143C78.5156 143 74.8638 139.085 74.8051 134.107C74.7449 129.46 78.4877 125.154 83.7504 125.246Z" fill="url(#paint5_linear_519_835)"/>
<path d="M55.0407 32.4994C55.145 27.8583 58.766 24.8565 62.713 25.0053C67.1666 25.1717 70.0769 28.2457 70.1224 32.6114C70.1635 36.5382 67.1299 40.5401 61.6514 40.0908C58.2506 39.811 54.9438 36.6678 55.0407 32.4994Z" fill="url(#paint6_linear_519_835)"/>
<path d="M141.999 64.7856C141.98 68.7713 138.819 71.9837 134.782 71.8939C130.829 71.807 127.819 68.7521 127.791 64.7061C127.766 60.9855 130.741 57.4785 135.293 57.6361C138.784 57.7687 142.052 60.7543 141.999 64.7856Z" fill="url(#paint7_linear_519_835)"/>
<path d="M38.335 109.818C38.2176 105.989 41.5522 102.504 45.7298 102.717C49.5475 102.913 52.5328 105.811 52.5254 109.833C52.5166 113.937 49.3699 116.918 45.3304 116.968C41.6183 117.008 38.2646 113.848 38.335 109.818Z" fill="url(#paint8_linear_519_835)"/>
<path d="M80.7476 87.8617C79.426 88.5451 78.3057 89.1711 77.1398 89.7028C76.7667 89.8374 76.3577 89.8316 75.9886 89.6866C74.2823 89.0238 72.6113 88.2829 70.9065 87.601C69.3339 86.9691 67.7436 86.3829 66.1651 85.7687C64.4648 85.1073 62.7703 84.4327 61.0728 83.7684C59.3108 83.0762 57.5326 82.3986 55.772 81.6931C54.098 81.0215 52.4402 80.3086 50.7663 79.631C49.5798 79.1538 48.3728 78.7252 47.1893 78.2421C46.8457 78.0948 46.5477 77.8459 46.2011 77.6249L47.0557 74.4935L80.7476 87.8617Z" fill="url(#paint9_linear_519_835)"/>
<path d="M67.381 40.9171L69.9741 38.6945C77.0972 47.1328 84.2174 55.5637 91.4476 64.1272C90.0527 64.2509 88.7943 64.3879 87.5315 64.4483C87.2965 64.4601 86.9896 64.2082 86.8105 63.9991C84.7548 61.5865 82.7108 59.1645 80.6786 56.7332C78.8504 54.5577 77.0385 52.3675 75.203 50.1964C73.6348 48.3435 72.0342 46.5142 70.466 44.6627C69.4205 43.427 68.4074 42.1647 67.381 40.9171Z" fill="url(#paint10_linear_519_835)"/>
<path d="M114.88 105.078L85.953 93.631C86.3759 93.3689 86.6872 93.1523 87.0117 92.98C87.8736 92.5278 88.737 92.0786 89.6195 91.6721C89.8524 91.5844 90.1091 91.5844 90.3419 91.6721C91.9307 92.2819 93.5048 92.9299 95.0877 93.5515C96.8278 94.2349 98.5795 94.8874 100.315 95.5812C101.998 96.2543 103.66 96.9804 105.343 97.6521C106.995 98.3105 108.67 98.9158 110.324 99.5669C112.043 100.252 113.751 100.966 115.463 101.673C115.934 101.868 116.238 102.031 115.793 102.659C115.428 103.175 115.353 103.894 115.13 104.52C115.058 104.716 114.962 104.9 114.88 105.078Z" fill="url(#paint11_linear_519_835)"/>
<path d="M93.7354 129.828C93.3081 129.14 92.8675 128.464 92.4608 127.766C91.9557 126.904 91.9527 126.872 92.8617 126.293C94.957 124.989 97.0774 123.723 99.1683 122.401C101.352 121.02 103.499 119.578 105.685 118.198C107.619 116.978 109.586 115.813 111.535 114.616C112.603 113.959 113.658 113.283 114.723 112.621C115.006 112.446 115.31 112.294 115.525 112.171L117.334 115.035L93.7354 129.828Z" fill="url(#paint12_linear_519_835)"/>
<path d="M43.7328 63.2066L40.8988 61.258L55.8102 39.4133L58.6412 41.3855L43.7328 63.2066Z" fill="url(#paint13_linear_519_835)"/>
<path d="M90.712 97.6462C91.6811 98.0188 92.6546 98.3826 93.6105 98.7774C93.6864 98.8331 93.747 98.9072 93.7868 98.9926C93.8266 99.0781 93.8442 99.1723 93.8381 99.2664C93.4696 100.895 93.0731 102.519 92.6752 104.142C92.1451 106.3 91.5974 108.453 91.0747 110.612C90.709 112.123 90.3713 113.641 90.0218 115.155C89.5813 117.089 89.1496 119.025 88.6841 120.953C88.4331 121.985 88.1174 123.016 87.8413 124.001L84.5521 123.163C86.5844 114.749 88.6376 106.243 90.712 97.6462Z" fill="url(#paint14_linear_519_835)"/>
<path d="M75.5055 126.866C74.8491 127.913 74.2662 128.839 73.6729 129.785C72.3705 128.966 71.0211 128.122 69.6746 127.272C67.8156 126.094 65.9508 124.935 64.1035 123.737C62.3415 122.606 60.6235 121.425 58.8585 120.308C57.3593 119.361 55.819 118.48 54.3065 117.556C53.5944 117.114 52.8969 116.66 52.2141 116.181C52.1524 116.137 52.1965 115.838 52.2773 115.714C52.8103 114.895 53.3668 114.09 53.96 113.206L75.5055 126.866Z" fill="url(#paint15_linear_519_835)"/>
<path d="M58.788 41.521C59.926 41.711 60.8658 41.8554 61.7982 42.0409C61.945 42.0704 62.2035 42.3164 62.1829 42.4106C61.8555 43.8232 61.4708 45.2224 61.1433 46.635C60.8981 47.6866 60.7351 48.7574 60.4987 49.8105C60.1375 51.4175 59.7293 53.0141 59.3666 54.6196C59.1346 55.6506 58.9701 56.692 58.7381 57.7127C58.3695 59.3462 57.9555 60.9664 57.5928 62.5998C57.3578 63.6529 57.1655 64.7149 56.9819 65.7783C56.8571 66.4956 56.5634 66.8653 55.7441 66.7829C55.029 66.7107 54.2963 66.8447 53.5724 66.8403C53.4666 66.8403 53.2508 66.5546 53.2787 66.4426C53.6487 64.793 54.0745 63.1477 54.4446 61.4892C54.8249 59.7807 55.1391 58.0574 55.518 56.3473C55.8748 54.7315 56.2918 53.1408 56.6515 51.5309C56.8865 50.4807 57.0421 49.4114 57.2815 48.3612C57.6383 46.8073 58.0538 45.2681 58.4107 43.7127C58.581 42.9733 58.672 42.2118 58.788 41.521Z" fill="url(#paint16_linear_519_835)"/>
<path d="M71.8566 34.8856C71.9696 33.7529 72.0812 32.6291 72.1972 31.4669C73.4806 31.5966 74.7933 31.7718 76.1104 31.8543C78.9679 32.0296 81.8283 32.1489 84.6858 32.3109C86.81 32.4346 88.9333 32.5819 91.0556 32.7528C92.7868 32.8912 94.5136 33.0783 96.3417 33.2536C96.2698 34.3641 96.1949 35.4836 96.1273 36.6C94.0393 36.491 92.0159 36.3982 89.9954 36.276C87.8237 36.1434 85.652 35.9814 83.4802 35.8341C81.332 35.6868 79.1823 35.5587 77.037 35.3922C75.3337 35.2508 73.6289 35.0594 71.8566 34.8856Z" fill="url(#paint17_linear_519_835)"/>
<path d="M129.919 96.9525L126.549 96.2425C128.152 88.5834 129.759 80.9031 131.37 73.2018L134.747 74.0119L129.919 96.9525Z" fill="url(#paint18_linear_519_835)"/>
<path d="M119.994 97.9364L117.316 100.156C116.341 98.935 115.347 97.6521 114.301 96.3972C113.197 95.0804 112.03 93.8152 110.911 92.5087C108.894 90.152 106.888 87.7924 104.891 85.4299C104.767 85.2826 104.679 85.1088 104.563 84.9586C104.111 84.3694 104.146 84.2884 104.805 84.01C105.501 83.7154 106.274 83.4915 106.83 83.0158C107.288 82.6196 107.418 83.0246 107.526 83.1528C108.758 84.5756 109.952 86.0294 111.164 87.4684C112.536 89.0974 113.921 90.7176 115.294 92.3467C116.864 94.2055 118.423 96.0658 119.994 97.9364Z" fill="url(#paint19_linear_519_835)"/>
<path d="M114.036 45.1223L116.169 42.6831C116.865 43.3209 117.574 43.8998 118.203 44.5567C119.965 46.3963 121.681 48.2758 123.429 50.1257C125.508 52.3263 127.594 54.5199 129.687 56.7067C129.96 57.0013 129.915 57.206 129.608 57.4652C129.02 57.9601 128.461 58.4889 127.915 59.031C127.621 59.3255 127.474 59.4507 127.103 59.0177C126.145 57.8939 125.082 56.8599 124.072 55.7773C122.797 54.4134 121.548 53.0244 120.254 51.6708C118.664 49.9961 117.043 48.3524 115.444 46.685C114.92 46.1312 114.419 45.5465 114.036 45.1223Z" fill="url(#paint20_linear_519_835)"/>
<path d="M49.9616 81.4368C50.9998 81.8787 51.919 82.2514 52.8161 82.6726C52.9043 82.7319 52.9764 82.8122 53.0261 82.9062C53.0758 83.0003 53.1016 83.1052 53.101 83.2117C52.706 84.9541 52.2479 86.6833 51.8573 88.4258C51.4785 90.127 51.1862 91.8474 50.8074 93.5471C50.455 95.1305 50.0218 96.6962 49.6591 98.2766C49.4668 99.1147 49.3655 99.9719 49.1922 100.817C49.143 101.007 49.0751 101.192 48.9896 101.368L45.6725 100.632L49.9616 81.4368Z" fill="url(#paint21_linear_519_835)"/>
<path d="M44.7915 100.579C43.7739 100.9 42.8826 101.205 41.9693 101.448C41.8224 101.486 41.4774 101.278 41.4362 101.125C41.0603 99.7495 40.7373 98.3576 40.3864 96.9745C40.0516 95.6489 39.6918 94.341 39.3585 93.0198C38.9576 91.4187 38.5935 89.8088 38.1838 88.2122C37.8343 86.8748 37.4276 85.5521 37.059 84.2206C37.0261 84.0152 37.0134 83.807 37.0208 83.5991L40.1044 82.7639C40.4847 83.954 40.8812 85.097 41.213 86.2591C41.5552 87.4522 41.8459 88.66 42.1352 89.8678C42.5948 91.7914 43.0059 93.7268 43.4905 95.6445C43.8693 97.1513 44.3304 98.6242 44.746 100.113C44.7777 100.266 44.793 100.422 44.7915 100.579Z" fill="url(#paint22_linear_519_835)"/>
<path d="M98.9114 63.6544C100.339 57.7628 101.748 51.9423 103.14 46.1931L106.45 47.0385C106.421 47.1858 106.38 47.4333 106.321 47.6719C105.8 49.7811 105.267 51.8873 104.754 54.0054C104.381 55.5387 104.03 57.0764 103.678 58.6141C103.375 59.9397 103.09 61.2654 102.781 62.591C102.736 62.8466 102.605 63.0787 102.408 63.2473C102.212 63.4159 101.963 63.5104 101.704 63.5145C100.836 63.569 99.9657 63.6014 98.9114 63.6544Z" fill="url(#paint23_linear_519_835)"/>
<path d="M93.1994 71.5109C93.3233 71.4394 93.4554 71.3835 93.5929 71.3445C94.5591 71.287 95.5385 71.3209 96.4886 71.1662C97.4386 71.0116 97.8395 71.67 98.3182 72.2341C99.5178 73.6466 100.701 75.0724 101.9 76.4879C102.139 76.7707 102.289 77.0888 101.9 77.2921C100.995 77.7605 100.058 78.164 99.1537 78.5853L93.1994 71.5109Z" fill="url(#paint24_linear_519_835)"/>
<path d="M96.4239 88.52C96.2448 89.3596 96.0936 90.2065 95.8645 91.0328C95.8102 91.2302 95.4313 91.5277 95.3036 91.4835C94.3623 91.1595 93.4476 90.7603 92.3433 90.3052L96.2977 88.3197C96.3388 88.3904 96.3784 88.4611 96.4239 88.52Z" fill="url(#paint25_linear_519_835)"/>
<path d="M94.7911 80.855C95.0745 79.6355 95.3153 78.6059 95.584 77.4497C96.1787 78.111 96.6927 78.6604 97.1655 79.2437C97.2095 79.2996 97.0407 79.6369 96.8982 79.7209C96.2683 80.0921 95.6134 80.4191 94.7911 80.855Z" fill="url(#paint26_linear_519_835)"/>
<path d="M54.9703 74.33C54.8234 75.5349 54.8234 75.5378 53.6796 75.0312C53.2611 74.8676 52.8751 74.6301 52.5401 74.33H54.9703Z" fill="url(#paint27_linear_519_835)"/>
<defs>
<linearGradient id="paint0_linear_519_835" x1="-6.38961" y1="3.54547" x2="151.78" y2="15.6971" gradientUnits="userSpaceOnUse">
<stop stop-color="#FF267E"/>
<stop offset="1" stop-color="#5954DD"/>
</linearGradient>
<linearGradient id="paint1_linear_519_835" x1="-6.38961" y1="3.54547" x2="151.78" y2="15.6971" gradientUnits="userSpaceOnUse">
<stop stop-color="#FF267E"/>
<stop offset="1" stop-color="#5954DD"/>
</linearGradient>
<linearGradient id="paint2_linear_519_835" x1="-6.38961" y1="3.54547" x2="151.78" y2="15.6971" gradientUnits="userSpaceOnUse">
<stop stop-color="#FF267E"/>
<stop offset="1" stop-color="#5954DD"/>
</linearGradient>
<linearGradient id="paint3_linear_519_835" x1="-6.38961" y1="3.54547" x2="151.78" y2="15.6971" gradientUnits="userSpaceOnUse">
<stop stop-color="#FF267E"/>
<stop offset="1" stop-color="#5954DD"/>
</linearGradient>
<linearGradient id="paint4_linear_519_835" x1="-6.38961" y1="3.54547" x2="151.78" y2="15.6971" gradientUnits="userSpaceOnUse">
<stop stop-color="#FF267E"/>
<stop offset="1" stop-color="#5954DD"/>
</linearGradient>
<linearGradient id="paint5_linear_519_835" x1="-6.38961" y1="3.54547" x2="151.78" y2="15.6971" gradientUnits="userSpaceOnUse">
<stop stop-color="#FF267E"/>
<stop offset="1" stop-color="#5954DD"/>
</linearGradient>
<linearGradient id="paint6_linear_519_835" x1="-6.38961" y1="3.54547" x2="151.78" y2="15.6971" gradientUnits="userSpaceOnUse">
<stop stop-color="#FF267E"/>
<stop offset="1" stop-color="#5954DD"/>
</linearGradient>
<linearGradient id="paint7_linear_519_835" x1="-6.38961" y1="3.54547" x2="151.78" y2="15.6971" gradientUnits="userSpaceOnUse">
<stop stop-color="#FF267E"/>
<stop offset="1" stop-color="#5954DD"/>
</linearGradient>
<linearGradient id="paint8_linear_519_835" x1="-6.38961" y1="3.54547" x2="151.78" y2="15.6971" gradientUnits="userSpaceOnUse">
<stop stop-color="#FF267E"/>
<stop offset="1" stop-color="#5954DD"/>
</linearGradient>
<linearGradient id="paint9_linear_519_835" x1="-6.38961" y1="3.54547" x2="151.78" y2="15.6971" gradientUnits="userSpaceOnUse">
<stop stop-color="#FF267E"/>
<stop offset="1" stop-color="#5954DD"/>
</linearGradient>
<linearGradient id="paint10_linear_519_835" x1="-6.38961" y1="3.54547" x2="151.78" y2="15.6971" gradientUnits="userSpaceOnUse">
<stop stop-color="#FF267E"/>
<stop offset="1" stop-color="#5954DD"/>
</linearGradient>
<linearGradient id="paint11_linear_519_835" x1="-6.38961" y1="3.54547" x2="151.78" y2="15.6971" gradientUnits="userSpaceOnUse">
<stop stop-color="#FF267E"/>
<stop offset="1" stop-color="#5954DD"/>
</linearGradient>
<linearGradient id="paint12_linear_519_835" x1="-6.38961" y1="3.54547" x2="151.78" y2="15.6971" gradientUnits="userSpaceOnUse">
<stop stop-color="#FF267E"/>
<stop offset="1" stop-color="#5954DD"/>
</linearGradient>
<linearGradient id="paint13_linear_519_835" x1="-6.38961" y1="3.54547" x2="151.78" y2="15.6971" gradientUnits="userSpaceOnUse">
<stop stop-color="#FF267E"/>
<stop offset="1" stop-color="#5954DD"/>
</linearGradient>
<linearGradient id="paint14_linear_519_835" x1="-6.38961" y1="3.54547" x2="151.78" y2="15.6971" gradientUnits="userSpaceOnUse">
<stop stop-color="#FF267E"/>
<stop offset="1" stop-color="#5954DD"/>
</linearGradient>
<linearGradient id="paint15_linear_519_835" x1="-6.38961" y1="3.54547" x2="151.78" y2="15.6971" gradientUnits="userSpaceOnUse">
<stop stop-color="#FF267E"/>
<stop offset="1" stop-color="#5954DD"/>
</linearGradient>
<linearGradient id="paint16_linear_519_835" x1="-6.38961" y1="3.54547" x2="151.78" y2="15.6971" gradientUnits="userSpaceOnUse">
<stop stop-color="#FF267E"/>
<stop offset="1" stop-color="#5954DD"/>
</linearGradient>
<linearGradient id="paint17_linear_519_835" x1="-6.38961" y1="3.54547" x2="151.78" y2="15.6971" gradientUnits="userSpaceOnUse">
<stop stop-color="#FF267E"/>
<stop offset="1" stop-color="#5954DD"/>
</linearGradient>
<linearGradient id="paint18_linear_519_835" x1="-6.38961" y1="3.54547" x2="151.78" y2="15.6971" gradientUnits="userSpaceOnUse">
<stop stop-color="#FF267E"/>
<stop offset="1" stop-color="#5954DD"/>
</linearGradient>
<linearGradient id="paint19_linear_519_835" x1="-6.38961" y1="3.54547" x2="151.78" y2="15.6971" gradientUnits="userSpaceOnUse">
<stop stop-color="#FF267E"/>
<stop offset="1" stop-color="#5954DD"/>
</linearGradient>
<linearGradient id="paint20_linear_519_835" x1="-6.38961" y1="3.54547" x2="151.78" y2="15.6971" gradientUnits="userSpaceOnUse">
<stop stop-color="#FF267E"/>
<stop offset="1" stop-color="#5954DD"/>
</linearGradient>
<linearGradient id="paint21_linear_519_835" x1="-6.38961" y1="3.54547" x2="151.78" y2="15.6971" gradientUnits="userSpaceOnUse">
<stop stop-color="#FF267E"/>
<stop offset="1" stop-color="#5954DD"/>
</linearGradient>
<linearGradient id="paint22_linear_519_835" x1="-6.38961" y1="3.54547" x2="151.78" y2="15.6971" gradientUnits="userSpaceOnUse">
<stop stop-color="#FF267E"/>
<stop offset="1" stop-color="#5954DD"/>
</linearGradient>
<linearGradient id="paint23_linear_519_835" x1="-6.38961" y1="3.54547" x2="151.78" y2="15.6971" gradientUnits="userSpaceOnUse">
<stop stop-color="#FF267E"/>
<stop offset="1" stop-color="#5954DD"/>
</linearGradient>
<linearGradient id="paint24_linear_519_835" x1="-6.38961" y1="3.54547" x2="151.78" y2="15.6971" gradientUnits="userSpaceOnUse">
<stop stop-color="#FF267E"/>
<stop offset="1" stop-color="#5954DD"/>
</linearGradient>
<linearGradient id="paint25_linear_519_835" x1="-6.38961" y1="3.54547" x2="151.78" y2="15.6971" gradientUnits="userSpaceOnUse">
<stop stop-color="#FF267E"/>
<stop offset="1" stop-color="#5954DD"/>
</linearGradient>
<linearGradient id="paint26_linear_519_835" x1="-6.38961" y1="3.54547" x2="151.78" y2="15.6971" gradientUnits="userSpaceOnUse">
<stop stop-color="#FF267E"/>
<stop offset="1" stop-color="#5954DD"/>
</linearGradient>
<linearGradient id="paint27_linear_519_835" x1="-6.38961" y1="3.54547" x2="151.78" y2="15.6971" gradientUnits="userSpaceOnUse">
<stop stop-color="#FF267E"/>
<stop offset="1" stop-color="#5954DD"/>
</linearGradient>
</defs>
</svg>
