<svg width="168" height="168" viewBox="0 0 168 168" fill="none" xmlns="http://www.w3.org/2000/svg">
<path d="M117.773 58.537C117.951 59.2149 118.149 59.8885 118.3 60.5721C118.493 61.4337 118.661 62.3024 118.818 63.1712C119.105 64.7757 119.386 66.3831 119.663 67.9933C119.684 68.1825 119.688 68.373 119.677 68.563C119.677 70.6992 119.692 72.8354 119.677 74.963C119.688 75.9038 119.637 76.8444 119.524 77.7785C119.294 79.375 119.027 80.9729 118.665 82.5437C118.325 84.0308 117.895 85.4961 117.377 86.9315C116.475 89.3981 115.516 91.8476 114.135 94.1034C113.216 95.6016 112.394 97.1639 111.401 98.6094C110.576 99.8085 109.6 100.912 108.624 101.997C107.277 103.496 105.933 105.009 104.46 106.381C103.193 107.539 101.84 108.601 100.413 109.558C98.4667 110.887 96.4685 112.147 94.4259 113.321C93.3466 113.94 92.1356 114.343 90.969 114.798C89.5233 115.357 88.0805 115.937 86.5975 116.383C85.2363 116.793 83.8292 117.061 82.4336 117.352C81.5747 117.533 80.6973 117.677 79.8213 117.78C77.8173 118.005 75.8133 118.19 73.7779 118.395C73.8291 118.489 73.8959 118.575 73.9754 118.647C75.8978 120.214 77.8889 121.69 80.0975 122.827C81.526 123.566 83.0066 124.201 84.5277 124.727C86.1307 125.25 87.7623 125.683 89.4145 126.023C90.4995 126.26 91.6189 126.35 92.7282 126.461C93.9678 126.584 95.2146 126.756 96.4499 126.725C98.0701 126.678 99.6862 126.535 101.289 126.297C102.513 126.11 103.719 125.824 104.897 125.443C107.359 124.665 109.763 123.711 111.992 122.417C113.74 121.398 115.347 120.12 116.932 118.856C118.155 117.861 119.309 116.785 120.387 115.635C121.14 114.842 121.697 113.868 122.391 113.016C123.737 111.374 124.63 109.467 125.625 107.621C126.046 106.841 126.313 105.974 126.607 105.129C127.036 103.903 127.448 102.671 127.806 101.426C128.022 100.693 128.166 99.9411 128.236 99.1805C128.417 97.0799 128.625 94.975 128.649 92.8701C128.665 91.4332 128.452 89.982 128.227 88.555C128.042 87.2996 127.755 86.0612 127.368 84.8522C126.713 82.8869 126.058 80.9159 124.993 79.1073C124.501 78.2713 124.135 77.357 123.748 76.4655C123.491 75.8745 124.344 74.5102 125.081 74.2809C126.538 73.8266 127.487 74.2809 128.177 75.6794C128.832 77.0124 129.608 78.2941 130.192 79.6541C130.65 80.708 130.908 81.8487 131.256 82.9482C131.617 84.0804 132.01 85.2026 132.339 86.3433C132.473 86.8076 132.483 87.3089 132.528 87.7959C132.682 89.4664 132.902 91.1355 132.948 92.8089C132.997 94.6017 132.949 96.3958 132.805 98.1836C132.716 99.2716 132.365 100.34 132.133 101.418C131.94 102.315 131.82 103.236 131.541 104.108C131.101 105.549 130.581 106.964 129.982 108.346C129.139 110.213 128.264 112.077 127.208 113.833C126.428 115.138 125.41 116.319 124.394 117.464C123.001 119.03 121.592 120.611 120.038 122.021C118.359 123.537 116.537 124.906 114.486 125.926C113.074 126.628 111.696 127.401 110.256 128.035C108.87 128.667 107.441 129.2 105.979 129.629C104.394 130.066 102.732 130.224 101.132 130.617C98.5383 131.255 95.9102 131.003 93.2979 131C91.9524 131 90.604 130.734 89.2642 130.543C88.343 130.416 87.429 130.241 86.526 130.02C85.5369 129.774 84.5549 129.48 83.593 129.141C82.7084 128.828 81.8496 128.441 80.9879 128.063C79.0488 127.225 77.1789 126.236 75.3954 125.107C72.8891 123.505 70.5927 121.599 68.559 119.433C68.1296 118.97 67.7001 118.502 67.2349 118.062C67.0802 117.93 66.893 117.841 66.6924 117.805C65.2825 117.521 63.8654 117.257 62.4598 116.951C61.2703 116.69 60.0579 116.471 58.9171 116.062C57.2538 115.444 55.6291 114.725 54.0174 114C52.7992 113.455 51.6026 112.861 50.426 112.228C48.6525 111.279 46.952 110.218 45.4161 108.892C44.3368 107.955 43.1258 107.17 42.0752 106.2C40.8127 105.031 39.6418 103.761 38.4766 102.497C37.6321 101.579 36.8191 100.623 36.0604 99.6348C35.333 98.6969 34.6601 97.7183 34.045 96.7039C33.1561 95.2029 32.2973 93.6805 31.5043 92.1239C30.9548 90.9896 30.4646 89.8279 30.0356 88.6433C29.4903 87.2078 28.9506 85.7665 28.5069 84.2982C28.2106 83.3227 28.0875 82.2959 27.8828 81.2933C27.6581 80.1967 27.389 79.1073 27.2129 78.0036C27.0946 77.2139 27.0348 76.4166 27.034 75.6181C27.0111 73.2954 26.9638 70.9697 27.0483 68.6498C27.0998 67.267 27.3675 65.8913 27.565 64.5198C27.6741 63.6056 27.8332 62.6981 28.0417 61.8012C28.3494 60.612 28.7574 59.4485 29.1253 58.275C29.4516 57.2425 29.7064 56.1801 30.1272 55.1875C30.8186 53.5597 31.5672 51.9518 32.3903 50.3867C33.1063 49.0263 33.8992 47.7074 34.765 46.4361C35.6553 45.1316 36.653 43.8969 37.6421 42.6622C38.2476 41.9074 38.9304 41.2195 39.5688 40.4861C40.4276 39.4892 41.7774 39.7071 42.4316 40.3138C43.6955 41.483 43.3505 42.7747 42.6062 43.5565C41.5842 44.6289 40.6924 45.8352 39.7792 46.9987C39.1623 47.7891 38.5682 48.6008 38.0315 49.4453C37.2857 50.6203 36.5442 51.8037 35.9101 53.0399C35.1944 54.4483 34.566 55.9081 33.9448 57.3635C33.6941 57.9917 33.488 58.6365 33.3279 59.2932C33.0173 60.4511 32.7768 61.6303 32.4347 62.7795C31.9208 64.5113 31.8421 66.3071 31.5429 68.0674C31.1564 70.3346 31.3354 72.5847 31.3511 74.8349C31.3597 76.2932 31.7805 77.7472 32.001 79.2041C32.0582 79.5715 32.0682 79.9489 32.1441 80.3121C32.4304 81.6365 32.6952 82.9653 33.0402 84.274C33.2305 84.9961 33.587 85.674 33.8117 86.3903C33.8661 86.5655 33.6957 86.8104 33.6299 87.0141H33.9563C34.8151 88.7942 35.6052 90.5929 36.5457 92.3104C37.4054 93.8519 38.3452 95.3479 39.3612 96.7922C40.0268 97.7478 40.8699 98.5866 41.6014 99.5009C43.0697 101.312 44.7518 102.941 46.6113 104.353C48.329 105.669 50.1368 106.868 51.9476 108.056C53.0478 108.783 54.1955 109.438 55.3829 110.014C56.5137 110.556 57.7147 110.955 58.897 111.382C60.1237 111.825 61.349 112.287 62.6072 112.624C63.675 112.909 64.7887 113.04 65.8837 113.23C67.2822 113.47 68.6792 113.745 70.0877 113.916C70.9094 114.016 71.7524 113.939 72.587 113.94C73.3728 113.94 74.1615 113.986 74.9459 113.932C76.6321 113.818 78.324 113.718 79.9973 113.49C81.3739 113.302 82.7353 113.016 84.0711 112.636C85.7962 112.163 87.4928 111.592 89.1526 110.927C90.7377 110.247 92.2819 109.477 93.7774 108.62C95.2632 107.794 96.7204 106.911 98.1232 105.945C99.118 105.264 100.027 104.45 100.926 103.641C102.095 102.586 103.263 101.522 104.341 100.377C105.267 99.3727 106.132 98.3146 106.932 97.208C107.908 95.8879 108.863 94.5449 109.715 93.145C110.43 91.9715 111.013 90.7154 111.596 89.4679C112.178 88.2203 112.715 86.9372 113.219 85.6498C113.455 85.0459 113.577 84.3951 113.733 83.7613C114.01 82.622 114.324 81.497 114.531 80.3434C114.773 78.9976 114.825 77.6119 115.125 76.2818C115.638 74.0032 115.367 71.7146 115.349 69.4374C115.337 67.9463 114.935 66.4595 114.709 64.9699C114.657 64.6238 114.632 64.272 114.557 63.9317C114.271 62.6115 114.046 61.27 113.648 59.9811C113.25 58.6923 112.681 57.4248 112.152 56.163C111.739 55.1761 111.322 54.1863 110.818 53.2435C110.103 51.8963 109.343 50.5647 108.528 49.273C106.647 46.2518 104.323 43.5276 101.632 41.191C99.7482 39.5758 97.7637 38.0812 95.6898 36.7164C94.0909 35.6611 92.3203 34.8565 90.5926 34.0105C89.4151 33.4118 88.1968 32.8959 86.9468 32.4668C85.607 32.0267 84.2071 31.7704 82.8344 31.43C81.9197 31.2036 81.0136 30.9444 80.0932 30.7507C79.5609 30.6552 79.0222 30.5995 78.4815 30.5841C76.6464 30.4806 74.8114 30.3856 72.9763 30.2992C72.4768 30.2679 71.9757 30.2679 71.4762 30.2992C69.8873 30.4274 68.2913 30.5186 66.7153 30.7436C65.3496 30.9478 63.9974 31.2332 62.6659 31.5981C61.5886 31.9081 60.5296 32.278 59.4939 32.706C58.5506 33.0749 57.0319 32.8741 56.4779 32.2062C56.0299 31.6593 55.6878 30.9857 55.9483 30.3092C56.2647 29.4946 56.8072 28.8267 57.782 28.5732C58.8698 28.2884 59.919 27.8611 60.9912 27.5094C61.2102 27.4382 61.4592 27.4652 61.6897 27.4211C62.5829 27.2473 63.4904 27.1177 64.3607 26.8713C68.5118 25.7021 72.7745 26.0411 77.0028 26.0596C78.5774 26.0596 80.1519 26.3629 81.7265 26.6193C82.9843 26.8234 84.2275 27.1088 85.4481 27.4738C86.9024 27.9095 88.3267 28.4422 89.738 28.9919C91.1079 29.5259 92.472 30.0856 93.7918 30.7265C95.2948 31.4322 96.7579 32.219 98.1747 33.0834C99.765 34.0643 101.288 35.1485 102.735 36.329C104.271 37.6108 105.688 39.0349 107.094 40.4505C108.137 41.5072 109.189 42.5867 110.041 43.7915C111.472 45.8252 112.761 47.9614 114.092 50.0691C114.431 50.6074 114.657 51.2084 114.981 51.7653C115.087 51.9447 115.327 52.0601 115.525 52.1711C117.529 53.3104 119.607 54.3415 121.537 55.5891C123.121 56.6263 124.621 57.7858 126.023 59.0568C127.669 60.5071 129.223 62.0572 130.678 63.6981C132.19 65.4425 133.594 67.2769 134.883 69.191C135.806 70.5525 136.505 72.072 137.243 73.5503C137.946 74.9588 138.609 76.3986 139.217 77.8426C139.512 78.5447 139.62 79.3237 139.849 80.0557C140.103 80.8689 140.454 81.6565 140.664 82.4768C140.875 83.2971 140.951 84.2014 141.127 85.0573C141.34 86.1211 141.634 87.1693 141.812 88.2374C141.924 88.9817 141.977 89.7336 141.97 90.4861C141.99 92.7861 142.033 95.0875 141.956 97.3846C141.911 98.7233 141.669 100.059 141.485 101.391C141.364 102.331 141.192 103.265 140.968 104.186C140.659 105.374 140.252 106.536 139.893 107.712C139.685 108.389 139.529 109.084 139.28 109.745C138.865 110.847 138.46 111.959 137.932 113.009C137.034 114.793 136.12 116.578 135.069 118.278C133.871 120.224 132.578 122.116 130.962 123.768C129.558 125.204 128.266 126.759 126.811 128.13C125.586 129.288 124.223 130.309 122.865 131.318C121.658 132.212 120.432 133.098 119.11 133.82C117.536 134.688 115.871 135.426 114.209 136.135C112.492 136.869 110.754 137.57 108.982 138.152C107.666 138.579 106.271 138.771 104.927 139.128C101.778 139.965 98.5598 140.028 95.3362 139.982C94.3343 139.965 93.3323 140.043 92.3303 139.963C90.8402 139.844 89.3558 139.639 87.8743 139.442C86.8834 139.334 85.8994 139.17 84.9271 138.951C83.6488 138.63 82.3835 138.239 81.1396 137.797C79.7597 137.309 78.3813 136.792 77.0529 136.18C75.2064 135.325 73.3427 134.471 71.6007 133.44C69.6197 132.257 67.6772 130.989 65.9982 129.368C65.0406 128.444 63.9513 127.659 62.9923 126.732C61.8715 125.658 61.8929 124.44 63.1626 123.314C63.8983 122.663 65.158 122.689 66.0411 123.573C67.2016 124.711 68.4224 125.785 69.6984 126.793C71.2513 128.042 72.9027 129.165 74.6367 130.15C76.4975 131.216 78.4013 132.23 80.4726 132.877C81.7522 133.277 83.0033 133.773 84.293 134.133C85.554 134.483 86.8423 134.75 88.1306 134.988C89.1783 135.183 90.2634 135.201 91.2983 135.439C93.8118 136.017 96.3482 135.653 98.8689 135.664C100.267 135.671 101.667 135.25 103.066 135.012C104.161 134.824 105.272 134.686 106.344 134.408C107.416 134.13 108.436 133.719 109.474 133.346C110.382 133.018 111.292 132.696 112.175 132.314C113.494 131.745 114.82 131.175 116.086 130.506C117.176 129.909 118.228 129.246 119.235 128.519C120.485 127.662 121.691 126.743 122.848 125.766C124.188 124.606 125.474 123.375 126.694 122.092C127.612 121.106 128.462 120.059 129.238 118.959C130.37 117.392 131.493 115.803 132.48 114.142C133.214 112.908 133.757 111.556 134.326 110.232C134.896 108.907 135.451 107.534 135.932 106.156C136.219 105.337 136.349 104.464 136.548 103.614C136.785 102.593 137.04 101.574 137.248 100.546C137.334 100.039 137.386 99.5256 137.404 99.011C137.507 97.302 137.606 95.5931 137.69 93.8841C137.726 93.315 137.726 92.7442 137.69 92.1751C137.565 90.5687 137.432 88.9623 137.261 87.3601C137.183 86.6652 136.991 85.983 136.841 85.2966C136.707 84.6828 136.609 84.0547 136.412 83.4637C135.775 81.6123 135.141 79.7609 134.418 77.9466C133.897 76.6337 133.296 75.3538 132.617 74.1142C131.876 72.7713 131.043 71.4753 130.171 70.2093C129.362 69.0301 128.453 67.9207 127.594 66.7771C126.213 64.9428 124.527 63.3976 122.779 61.935C121.265 60.6675 119.609 59.5667 118.014 58.3918L117.773 58.537Z" fill="url(#paint0_linear_519_785)"/>
<path d="M110.712 70.6004C110.666 80.8727 107.969 88.7382 102.382 95.4473C94.3363 105.107 83.8828 109.771 71.2463 109.217C63.6599 108.884 56.7477 106.369 50.7902 101.696C40.5757 93.6971 35.5557 83.1328 36.0682 70.1717C36.3545 62.9086 38.712 56.238 43.115 50.3947C51.1752 39.6995 61.998 34.5299 75.4046 35.0312C82.6603 35.3018 89.3207 37.6786 95.1579 42.0094C105.279 49.499 110.427 59.579 110.712 70.6004ZM84.0545 41.0581C73.6196 37.8211 63.8002 38.9903 54.7695 45.1084C45.8003 51.178 41.0767 59.8596 40.4053 70.4822C39.8542 79.2065 42.7242 87.0591 48.5328 93.6842C54.5662 100.567 62.3373 104.323 71.4181 104.906C80.3515 105.476 88.4146 102.639 95.1336 96.7746C101.979 90.8003 105.78 83.0402 106.31 74.0098C106.827 65.1915 104.02 57.2833 98.1839 50.5585C94.4064 46.2035 89.7172 43.1374 84.2406 41.2262C84.1919 41.4085 84.1619 41.5195 84.1433 41.595C84.1132 41.4198 84.0803 41.2148 84.0545 41.0581Z" fill="url(#paint1_linear_519_785)"/>
<path d="M47.8859 38.2611C46.6219 38.2611 45.5455 37.3126 45.6257 36.1662C45.7259 34.742 46.934 33.6611 48.4141 33.6355C49.8941 33.6098 50.5612 34.49 50.6041 35.6948C50.6542 37.0135 49.2929 38.2611 47.8859 38.2611Z" fill="url(#paint2_linear_519_785)"/>
<path d="M75.0653 89.1811C75.0653 90.2207 74.9895 91.1507 75.0868 92.0636C75.1841 92.9764 73.7799 94.2112 72.8696 94.1642C71.9005 94.1143 70.6795 93.2242 70.764 92.0835C70.8327 91.1464 70.7783 90.2008 70.7783 89.2239H68.0586C68.0586 90.131 68.0672 91.0439 68.0586 91.9582C68.0472 93.1787 66.7246 94.3337 65.525 94.167C64.712 94.0531 63.6413 92.8711 63.6313 92.0479C63.6199 91.1479 63.6184 90.2478 63.6127 89.342C63.5968 89.2864 63.5752 89.2325 63.5483 89.1811C62.9099 89.1811 62.2285 89.1811 61.5443 89.1811C60.3992 89.1811 59.725 88.3893 59.599 87.2457C59.4373 85.7846 60.6339 84.7606 61.9909 84.9059C62.5034 84.9614 63.0287 84.9158 63.5869 84.9158V58.7445C63.0487 58.7445 62.489 58.7345 61.9308 58.7445C60.0542 58.7858 59.3843 57.487 59.6406 55.9304C59.7579 55.2055 60.8716 54.3553 61.6774 54.3368C62.2944 54.3225 62.9113 54.3368 63.6327 54.3368C63.6327 53.6247 63.6513 52.9497 63.6327 52.2746C63.5984 51.2621 64.8609 50.0302 65.8385 50.0886C66.2312 50.0969 66.6147 50.208 66.9504 50.4108C67.2862 50.6136 67.5623 50.9008 67.7509 51.2436C68.3091 52.2063 67.9269 53.2373 68.113 54.2841H70.7869C70.7869 53.6831 70.8327 53.0707 70.7769 52.4683C70.6509 51.1111 71.4926 50.4845 72.4702 50.1085C73.3362 49.7738 75.0911 50.8975 75.0754 52.0525C75.0668 52.783 75.0754 53.5151 75.0754 54.3311C75.3428 54.3167 75.6109 54.3167 75.8784 54.3311C77.0564 54.465 78.296 54.4251 79.3925 54.7982C81.4623 55.5017 83.3517 56.6026 84.4926 58.5736C85.0909 59.6075 85.7178 60.6827 86.0055 61.8206C86.2918 62.9357 86.2918 64.169 86.1687 65.324C85.9739 67.0642 85.2572 68.7057 84.1118 70.035C83.7955 70.411 83.4562 70.7685 83.1341 71.1273C84.681 72.2463 85.8796 73.7764 86.5924 75.5422C87.3539 77.432 87.3081 79.4685 87.0104 81.3726C86.5981 83.9716 85.1968 86.0252 82.8693 87.606C80.4188 89.2737 77.8151 89.1968 75.0653 89.1811ZM68.1102 73.6822V84.9215C70.7554 84.9215 73.3491 84.9443 75.9414 84.9101C76.9433 84.8973 77.921 84.9714 78.9387 84.6837C80.1998 84.3277 81.229 83.6284 81.8631 82.6557C82.865 81.1105 83.1012 79.3532 82.5373 77.4776C81.9031 75.3713 80.0423 73.762 77.9382 73.705C74.6803 73.6182 71.4196 73.6822 68.1102 73.6822ZM68.0887 69.2674C70.8799 69.2674 73.591 69.2575 76.3021 69.2674C77.5044 69.2745 78.568 69.0381 79.6057 68.319C81.1144 67.2751 81.6512 65.794 81.906 64.1434C81.9747 63.7005 81.7743 63.2006 81.6355 62.7449C81.4608 62.1667 81.3492 61.5016 80.9871 61.0616C79.726 59.542 78.1242 58.6733 76.0559 58.7217C73.654 58.7787 71.2507 58.7345 68.8459 58.7345H68.0887V69.2674Z" fill="url(#paint3_linear_519_785)"/>
<defs>
<linearGradient id="paint0_linear_519_785" x1="-5.11039" y1="5.27274" x2="151.647" y2="17.631" gradientUnits="userSpaceOnUse">
<stop stop-color="#FF267E"/>
<stop offset="1" stop-color="#5954DD"/>
</linearGradient>
<linearGradient id="paint1_linear_519_785" x1="-5.11039" y1="5.27274" x2="151.647" y2="17.631" gradientUnits="userSpaceOnUse">
<stop stop-color="#FF267E"/>
<stop offset="1" stop-color="#5954DD"/>
</linearGradient>
<linearGradient id="paint2_linear_519_785" x1="-5.11039" y1="5.27274" x2="151.647" y2="17.631" gradientUnits="userSpaceOnUse">
<stop stop-color="#FF267E"/>
<stop offset="1" stop-color="#5954DD"/>
</linearGradient>
<linearGradient id="paint3_linear_519_785" x1="-5.11039" y1="5.27274" x2="151.647" y2="17.631" gradientUnits="userSpaceOnUse">
<stop stop-color="#FF267E"/>
<stop offset="1" stop-color="#5954DD"/>
</linearGradient>
</defs>
</svg>
