<svg width="168" height="168" viewBox="0 0 168 168" fill="none" xmlns="http://www.w3.org/2000/svg">
<path d="M67.4989 95.77C67.6116 95.2051 67.7335 94.4881 67.9013 93.7816C68.0927 92.9715 68.343 92.1759 68.5357 91.3658C68.8988 89.8296 69.2278 88.2868 69.5843 86.7506C70.0431 84.8002 70.5176 82.8537 70.9908 80.9059C71.152 80.2439 71.0485 79.7367 70.4665 79.2504C68.0533 77.2475 65.6808 75.187 63.3031 73.1474C61.9176 71.9572 60.5505 70.7448 59.1742 69.5467C58.5529 69.0067 58.3248 68.2949 58.562 67.6002C58.8543 66.743 59.5648 66.1846 60.3971 66.1308C62.3633 65.9998 64.3294 65.8884 66.2956 65.7376C68.1648 65.5882 70.03 65.3863 71.8978 65.2212C73.0605 65.1189 74.2231 64.9944 75.3871 64.9747C76.1736 64.9616 76.3046 64.3521 76.5144 63.8829C77.154 62.4685 77.7137 61.0188 78.3062 59.5822C78.8987 58.1456 79.4859 56.7221 80.0823 55.2973C80.6695 53.9079 81.262 52.5198 81.8833 51.1461C82.1186 50.5928 82.4206 50.0703 82.7825 49.5902C83.5401 48.6386 85.0527 48.8994 85.5784 49.931C86.1577 51.0688 86.6414 52.2563 87.1513 53.4308C87.5013 54.2461 87.8001 55.0837 88.1462 55.9003C88.8579 57.5833 89.588 59.2572 90.305 60.9363C90.8293 62.1645 91.3339 63.4058 91.9041 64.6143C91.992 64.8017 92.3799 64.9249 92.6395 64.9446C94.6882 65.0993 96.7422 65.1936 98.7896 65.3588C101.111 65.5462 103.428 65.79 105.747 66.0076C106.241 66.0535 106.739 66.1558 107.228 66.1256C107.69 66.0936 108.15 66.2061 108.545 66.4476C108.94 66.689 109.25 67.0475 109.432 67.4731C109.858 68.4208 109.301 69.0958 108.679 69.649C106.7 71.3975 104.67 73.0884 102.673 74.8199C101.131 76.1582 99.6088 77.5215 98.0779 78.8742C98.0294 78.9174 97.9927 78.9817 97.9363 79.0052C96.9191 79.4955 96.83 80.2636 97.1 81.2821C97.6794 83.4645 98.1657 85.6718 98.673 87.8726C99.04 89.4547 99.3768 91.0434 99.7412 92.6268C99.9483 93.522 100.134 94.4291 100.423 95.2981C100.744 96.2458 100.292 96.8711 99.6705 97.4255C99.2209 97.8292 98.1631 97.7978 97.5365 97.4255C96.2415 96.6504 94.9469 95.8744 93.6527 95.0976C91.2933 93.6741 88.9374 92.2475 86.585 90.8179C85.8353 90.3618 85.1183 89.8479 84.3567 89.4141C84.2416 89.3669 84.1175 89.3454 83.9931 89.3513C83.8688 89.3572 83.7473 89.3903 83.6371 89.4482C81.7208 90.5767 79.8188 91.7289 77.9208 92.8889C76.2837 93.8904 74.6701 94.9298 73.0238 95.9142C71.9909 96.5316 70.9515 97.1607 69.853 97.6379C68.7546 98.115 67.432 96.9287 67.4989 95.77Z" fill="url(#paint0_linear_519_841)"/>
<path d="M110.469 92.1313C110.625 92.0291 110.777 91.9203 110.937 91.8246C112.343 90.987 113.753 90.1573 115.156 89.3145C116.299 88.6276 117.425 87.9172 118.57 87.2382C118.881 87.0407 119.241 86.9365 119.609 86.9382C119.977 86.9398 120.337 87.0471 120.645 87.2474C122.275 88.2121 123.914 89.1598 125.532 90.1429C126.548 90.7602 127.53 91.43 128.532 92.0684C128.593 92.1064 128.692 92.0815 128.847 92.0907C128.599 91.1076 128.353 90.1704 128.13 89.2266C127.62 87.0678 127.108 84.909 126.628 82.7423C126.443 81.906 126.835 81.2624 127.452 80.7171C128.84 79.4902 130.205 78.2266 131.603 77.0194C132.521 76.2238 133.504 75.4924 134.597 74.6207C133.844 74.5303 133.279 74.4411 132.708 74.3966C130.318 74.2131 127.923 74.061 125.533 73.8565C124.747 73.7884 123.907 73.6586 123.473 72.8669C123.15 72.2797 122.939 71.6308 122.676 71.0108C122.035 69.4995 121.387 67.9961 120.752 66.4769C120.423 65.6904 120.116 64.904 119.791 64.1175C119.742 64.038 119.68 63.9668 119.609 63.9065C119.54 63.9694 119.442 64.0205 119.409 64.0992C118.646 65.9002 117.888 67.702 117.134 69.5048C116.714 70.5036 116.256 71.4867 115.89 72.5038C115.793 72.792 115.625 73.0511 115.401 73.2574C115.178 73.4637 114.906 73.6107 114.611 73.6848C114.316 73.7589 114.008 73.7577 113.713 73.6815C113.419 73.6052 113.148 73.4563 112.926 73.2483C112.541 72.8826 112.271 71.9572 112.474 71.4618C112.998 70.206 113.557 68.9634 114.088 67.7103C114.558 66.6001 114.999 65.482 115.473 64.3705C115.948 63.2589 116.463 62.1605 116.939 61.0503C117.256 60.3123 117.552 59.5639 117.83 58.8102C118.399 57.2674 119.959 57.0747 120.783 57.8927C121.23 58.337 121.48 59.0029 121.745 59.5967C122.235 60.7095 122.663 61.8459 123.128 62.9706C123.728 64.44 124.327 65.9093 124.936 67.3735C125.316 68.291 125.681 69.2164 126.128 70.0999C126.228 70.2991 126.629 70.4262 126.902 70.4459C128.971 70.6019 131.045 70.7081 133.115 70.8601C135.072 71.0082 137.029 71.1655 138.977 71.4015C139.686 71.488 140.365 71.8891 140.591 72.6244C140.708 72.9669 140.715 73.337 140.611 73.6837C140.508 74.0303 140.3 74.3362 140.015 74.5591C138.678 75.689 137.333 76.8097 136.01 77.9553C134.688 79.1009 133.428 80.2531 132.129 81.3935C131.725 81.7487 131.295 82.0738 130.879 82.4119C130.391 82.8052 130.337 83.2784 130.496 83.8787C130.897 85.4057 131.235 86.9485 131.593 88.4874C131.748 89.1546 131.876 89.827 132.033 90.4928C132.446 92.2349 132.905 93.9677 133.267 95.7202C133.398 96.3913 133.005 96.9314 132.454 97.3403C131.93 97.7335 131.298 97.7755 130.804 97.495C129.167 96.5643 127.593 95.5288 125.976 94.5549C124.36 93.581 122.693 92.6399 121.057 91.6791C120.706 91.4733 120.408 91.1666 120.045 90.9988C119.812 90.89 119.436 90.8376 119.235 90.9529C118 91.6568 116.797 92.4131 115.586 93.1576C114.097 94.0752 112.631 95.0281 111.117 95.8998C110.069 96.5014 108.965 96.9916 107.885 97.5317C107.012 97.9682 105.724 96.7452 105.937 95.7123C106.302 93.9585 106.772 92.2283 107.167 90.4797C107.595 88.5831 107.81 86.6156 108.453 84.7975C109.004 83.2351 108.584 82.3765 107.3 81.5993C106.696 81.2336 106.164 80.721 105.667 80.2098C104.949 79.4719 104.978 78.4128 105.444 77.8033C106.075 76.9801 107.306 76.9015 107.979 77.4743C109.396 78.6802 110.825 79.8782 112.153 81.1785C112.485 81.5049 112.624 82.235 112.546 82.7305C112.339 84.0412 111.955 85.3087 111.656 86.5985C111.344 87.9513 111.06 89.3092 110.745 90.6619C110.639 91.1142 110.483 91.5546 110.341 91.9989L110.469 92.1313Z" fill="url(#paint1_linear_519_841)"/>
<path d="M33.5827 74.6666C35.2421 76.1386 36.8596 77.5844 38.4928 79.0157C39.2478 79.6777 40.0199 80.3199 40.7998 80.9517C41.4014 81.4393 41.5233 82.1039 41.3752 82.7737C40.9649 84.6298 40.4747 86.4675 40.0369 88.317C39.7446 89.5543 39.4877 90.7996 39.1836 92.1864C39.7984 91.8023 40.3187 91.4681 40.8483 91.1495C42.5025 90.1534 44.1589 89.1615 45.8174 88.1741C46.2723 87.9028 46.752 87.6668 47.1872 87.368C48.0143 86.7991 48.7863 86.8437 49.6396 87.368C52.0947 88.874 54.5799 90.3329 57.0507 91.8141C57.2159 91.9124 57.3679 92.0343 57.6825 92.2558C57.4099 91.1312 57.1779 90.1927 56.9563 89.2529C56.4478 87.0901 55.9195 84.9273 55.4516 82.7619C55.3723 82.4272 55.3899 82.0769 55.5025 81.7519C55.6151 81.4269 55.818 81.1407 56.0873 80.9268C57.461 79.7629 58.7809 78.5294 60.2018 77.4284C61.0315 76.7848 62.0828 77.0928 62.6294 77.8976C63.0999 78.5897 62.9859 79.6554 62.2125 80.3068C61.3238 81.0553 60.5085 81.8942 59.5766 82.585C59.1139 82.9284 59.1833 83.2888 59.2751 83.6598C59.7548 85.7164 60.2752 87.7638 60.772 89.8204C61.1783 91.5008 61.6122 93.176 61.9517 94.8721C62.0736 95.4882 62.2702 96.1724 61.8337 96.7911C61.2688 97.5959 60.325 98.0088 59.0811 97.2237C57.8949 96.4713 56.6929 95.7412 55.4896 95.0137C53.7672 93.9716 52.037 92.9427 50.3134 91.9032C49.8061 91.5965 49.3067 91.2767 48.8112 90.9542C48.4639 90.7275 48.1991 90.8612 47.8779 91.0578C46.1962 92.0854 44.4883 93.0685 42.8053 94.0935C41.4198 94.9377 40.088 95.8749 38.6711 96.6587C37.9318 97.069 37.2882 97.7611 36.2829 97.6326C35.3811 97.5173 34.5854 96.5211 34.7938 95.6337C35.3347 93.3311 35.8726 91.0268 36.4074 88.7207C36.8006 87.0363 37.1637 85.3454 37.5805 83.6677C37.7785 82.8668 37.241 82.488 36.7705 82.0803C35.2198 80.7315 33.6521 79.3998 32.0884 78.0654C30.7776 76.9486 29.4747 75.8292 28.1561 74.7282C27.5413 74.217 27.19 73.3113 27.3998 72.6401C27.5754 72.0739 28.5231 71.4447 29.2113 71.3844C31.0123 71.2284 32.8093 71.0384 34.6103 70.8837C35.9211 70.771 37.2319 70.6897 38.5492 70.6045C39.392 70.5495 40.2362 70.4734 41.079 70.4813C41.9651 70.4813 42.0385 69.7328 42.2757 69.2151C43.1028 67.4115 43.8722 65.5803 44.6351 63.7466C45.2053 62.3676 45.7191 60.9677 46.2709 59.5822C46.436 59.1457 46.6304 58.721 46.8529 58.3108C47.2868 57.5387 48.0051 57.3854 48.8191 57.4876C49.5544 57.5807 49.8926 58.1535 50.1456 58.7211C51.0906 60.8471 51.9951 62.9916 52.8982 65.1347C53.7869 67.2398 54.6669 69.3518 55.5381 71.4709C55.8212 72.1552 55.3716 73.1513 54.791 73.5157C54.1565 73.909 52.9559 73.808 52.5626 73.1998C52.1052 72.475 51.7762 71.6649 51.4223 70.8785C50.8901 69.6988 50.3728 68.5125 49.8703 67.3197C49.4325 66.279 49.0301 65.2225 48.6054 64.1739C48.5517 64.0768 48.4871 63.9862 48.4127 63.9038C48.3472 63.9707 48.2541 64.0257 48.2201 64.1057C47.4782 65.8534 46.7411 67.6011 46.0088 69.3488C45.5539 70.4407 45.1502 71.5574 44.6574 72.6323C44.3834 73.2313 43.9037 73.6625 43.1854 73.7412C42.568 73.808 41.9559 73.9339 41.3372 73.9889C40.1339 74.0964 38.9267 74.1751 37.7208 74.2616C36.41 74.3546 35.0874 74.4424 33.7714 74.5381C33.7216 74.5421 33.6705 74.6063 33.5827 74.6666Z" fill="url(#paint2_linear_519_841)"/>
<path d="M19.7344 92.6399C17.957 93.6623 16.2136 94.6506 14.4913 95.6678C13.6707 96.1514 12.8738 96.6771 12.086 97.2145C11.3559 97.7139 10.6442 97.7322 9.97044 97.1634C9.34782 96.639 9.23772 95.9561 9.42385 95.188C9.81708 93.5509 10.2103 91.9111 10.6035 90.27C10.8539 89.2109 11.1279 88.157 11.3192 87.0875C11.3302 86.9271 11.3063 86.7664 11.2493 86.6161C11.1923 86.4659 11.1035 86.3298 10.9889 86.2171C8.88119 84.3506 6.74725 82.5129 4.6107 80.6791C3.91992 80.0853 3.86224 79.346 4.20304 78.6107C4.49666 77.9776 5.13369 77.7259 5.82316 77.6774C8.3346 77.4992 10.846 77.3288 13.3562 77.1466C13.6785 77.1364 13.998 77.0835 14.3065 76.9893C14.5133 76.9068 14.682 76.7503 14.7797 76.5502C15.8007 74.1724 16.7969 71.7816 17.8128 69.4012C18.0028 68.9529 18.1641 68.4352 18.4983 68.1167C19.5273 67.1375 20.8394 67.5203 21.4436 68.9621C21.9129 70.0802 22.3363 71.2166 22.795 72.3387C23.221 73.3807 23.668 74.4149 24.1058 75.4531C24.4335 76.2395 24.7166 77.0391 25.0967 77.7954C25.5267 78.6526 25.2357 79.5584 24.2041 80.1168C23.588 80.451 22.5578 80.1063 22.2026 79.367C21.6599 78.2371 21.1946 77.0705 20.6952 75.9197C20.3662 75.1607 20.0398 74.4018 19.6806 73.5904C19.0895 74.9353 18.5442 76.1779 17.9989 77.4205C17.7197 78.0576 17.4143 78.6841 17.1679 79.3342C16.9057 80.0368 16.287 80.2216 15.6841 80.2793C13.7756 80.4641 11.8606 80.5729 9.81052 80.721C10.6271 81.4498 11.3664 82.1223 12.1188 82.7763C12.9275 83.4789 13.7926 84.1225 14.5477 84.8736C14.9632 85.2891 15.1257 85.8619 14.9252 86.5238C14.6486 87.4414 14.4978 88.3851 14.2698 89.3145C14.0627 90.1796 13.8267 91.0394 13.6144 91.9032C13.5908 91.9963 13.634 92.1064 13.6563 92.286C14.6171 91.721 15.5281 91.1928 16.4299 90.6501C17.2806 90.1376 18.0894 89.5412 18.982 89.1218C19.2056 89.0339 19.4444 88.9915 19.6846 88.9971C19.9248 89.0028 20.1614 89.0563 20.3806 89.1545C21.5301 89.7457 22.6089 90.4653 23.7231 91.1377C24.3929 91.5415 25.0666 91.9386 25.8203 92.3856C25.5686 91.3291 25.3405 90.3565 25.1059 89.3865C24.8647 88.3904 24.5737 87.406 24.3837 86.4006C24.1936 85.3952 24.8556 84.7975 25.5476 84.2247C26.3341 83.5702 27.1105 82.8991 27.8769 82.2114C28.4825 81.6635 29.7578 81.539 30.2363 82.0646C31.0293 82.9428 30.9939 83.804 30.2533 84.5682C29.674 85.1646 29.0081 85.6771 28.3658 86.2079C28.0669 86.4544 27.9031 86.6667 28.0184 87.1163C28.4785 88.912 28.8849 90.7222 29.2978 92.5298C29.5455 93.6125 29.7998 94.6952 29.9885 95.7884C30.1091 96.4857 29.6713 96.9681 29.1287 97.3128C28.586 97.6575 28.063 97.6352 27.4627 97.2695C24.9722 95.7503 22.4451 94.2928 19.9336 92.8129C19.8609 92.763 19.794 92.7049 19.7344 92.6399Z" fill="url(#paint3_linear_519_841)"/>
<path d="M142.153 92.4328C143.407 91.6673 144.528 90.9804 145.652 90.2988C146.308 89.9056 146.95 89.4967 147.618 89.1349C148.169 88.8373 148.701 88.8845 149.261 89.2332C150.922 90.2713 152.611 91.2636 154.356 92.3135C154.376 92.0867 154.42 91.9543 154.391 91.8416C154.02 90.3775 153.605 88.9225 153.274 87.4505C153.134 86.8266 153.002 86.1267 153.143 85.5329C153.264 85.0466 153.763 84.6153 154.17 84.2457C155.427 83.0988 156.72 81.9912 157.998 80.8665C158.041 80.8188 158.078 80.7664 158.109 80.7106C156.177 80.5703 154.279 80.4484 152.383 80.2885C151.5 80.2151 150.905 79.7039 150.566 78.8951C150.135 77.8649 149.716 76.8294 149.287 75.7965C148.993 75.0926 148.695 74.39 148.349 73.5682C148.126 74.0715 147.915 74.5434 147.706 75.0166C147.064 76.4833 146.443 77.9592 145.77 79.4116C145.439 80.1259 144.415 80.4169 143.756 80.0735C142.725 79.5361 142.546 78.574 142.877 77.836C143.467 76.5253 144.001 75.183 144.56 73.8552C145.148 72.4632 145.737 71.0725 146.327 69.683C146.502 69.2754 146.697 68.8743 146.87 68.4653C147.156 67.7929 147.734 67.5688 148.379 67.5871C149.126 67.6094 149.654 68.0419 149.941 68.7353C150.645 70.4262 151.337 72.1211 152.038 73.8133C152.432 74.7544 152.816 75.6982 153.236 76.6262C153.286 76.7163 153.354 76.7949 153.436 76.8566C153.519 76.9183 153.613 76.9617 153.714 76.984C154.31 77.0719 154.917 77.0941 155.519 77.1453C157.517 77.317 159.516 77.4834 161.513 77.6696C162 77.7035 162.482 77.7834 162.955 77.9081C164.035 78.2253 164.385 79.7799 163.493 80.5611C162.214 81.6805 160.924 82.7894 159.637 83.8997C158.712 84.6979 157.761 85.4726 156.865 86.2997C156.34 86.7899 156.734 87.4178 156.821 87.9499C156.985 88.912 157.302 89.8466 157.531 90.7996C157.71 91.5454 157.836 92.3043 158.014 93.0515C158.227 93.9428 158.539 94.8171 158.67 95.7189C158.753 96.2694 158.476 96.816 158.004 97.1699C157.479 97.5631 156.896 97.7951 156.277 97.4229C154.718 96.4831 153.179 95.5079 151.624 94.5589C150.581 93.9209 149.528 93.297 148.467 92.6871C148.384 92.6399 148.197 92.7146 148.086 92.7801C146.12 93.9598 144.165 95.1618 142.2 96.3467C141.58 96.7216 140.96 97.1004 140.31 97.4176C139.69 97.7191 139.106 97.5592 138.596 97.1031C138.087 96.6469 137.874 96.0925 138.03 95.4358C138.482 93.5456 138.971 91.6634 139.42 89.7719C139.647 88.8168 139.839 87.8556 139.995 86.8882C140.025 86.7034 139.864 86.4281 139.701 86.2813C139.046 85.6744 138.317 85.1449 137.704 84.5C137.029 83.7922 137.01 83.1237 137.573 82.2887C138.024 81.6163 139.35 81.5442 139.983 82.0947C140.978 82.9598 141.994 83.7987 142.967 84.6901C143.534 85.2144 143.753 85.8252 143.53 86.6562C143.111 88.1754 142.813 89.7287 142.459 91.2675C142.398 91.5913 142.295 91.9137 142.153 92.4328Z" fill="url(#paint4_linear_519_841)"/>
<defs>
<linearGradient id="paint0_linear_519_841" x1="-40.6753" y1="40.1371" x2="165.229" y2="92.9548" gradientUnits="userSpaceOnUse">
<stop stop-color="#FF267E"/>
<stop offset="1" stop-color="#5954DD"/>
</linearGradient>
<linearGradient id="paint1_linear_519_841" x1="-40.6753" y1="40.1371" x2="165.229" y2="92.9548" gradientUnits="userSpaceOnUse">
<stop stop-color="#FF267E"/>
<stop offset="1" stop-color="#5954DD"/>
</linearGradient>
<linearGradient id="paint2_linear_519_841" x1="-40.6753" y1="40.1371" x2="165.229" y2="92.9548" gradientUnits="userSpaceOnUse">
<stop stop-color="#FF267E"/>
<stop offset="1" stop-color="#5954DD"/>
</linearGradient>
<linearGradient id="paint3_linear_519_841" x1="-40.6753" y1="40.1371" x2="165.229" y2="92.9548" gradientUnits="userSpaceOnUse">
<stop stop-color="#FF267E"/>
<stop offset="1" stop-color="#5954DD"/>
</linearGradient>
<linearGradient id="paint4_linear_519_841" x1="-40.6753" y1="40.1371" x2="165.229" y2="92.9548" gradientUnits="userSpaceOnUse">
<stop stop-color="#FF267E"/>
<stop offset="1" stop-color="#5954DD"/>
</linearGradient>
</defs>
</svg>
