<svg width="145" height="36" viewBox="0 0 145 36" fill="none" xmlns="http://www.w3.org/2000/svg">
<path d="M47.0514 26.9955H40.1687L38.5158 31.6946H35.6006L42.1198 14.3094H45.1486L51.6678 31.6946H48.7028L47.0514 26.9955ZM40.8815 24.8272H46.3372L43.6477 17.201H43.5725L40.8815 24.8272Z" fill="white"/>
<path d="M65.747 25.3576C65.747 29.2964 63.5574 31.8271 60.2531 31.8271C59.416 31.8693 58.5836 31.6836 57.851 31.2914C57.1185 30.8992 56.5155 30.3163 56.111 29.6095H56.0485V35.8876H53.3462V19.0193H55.9619V21.1275H56.0116C56.4346 20.424 57.0479 19.8442 57.786 19.4496C58.5241 19.055 59.3596 18.8605 60.2034 18.8867C63.5446 18.8867 65.747 21.4296 65.747 25.3576ZM62.9695 25.3576C62.9695 22.7914 61.5921 21.1042 59.4905 21.1042C57.4259 21.1042 56.0371 22.8269 56.0371 25.3576C56.0371 27.9115 57.4259 29.6218 59.4905 29.6218C61.5921 29.6218 62.9695 27.947 62.9695 25.3576Z" fill="white"/>
<path d="M80.2366 25.3576C80.2366 29.2964 78.047 31.8271 74.7427 31.8271C73.9056 31.8692 73.0732 31.6836 72.3406 31.2914C71.6081 30.8992 71.005 30.3163 70.6006 29.6095H70.538V35.8876H67.8358V19.0193H70.4514V21.1275H70.5011C70.9242 20.424 71.5374 19.8442 72.2755 19.4496C73.0137 19.055 73.8491 18.8605 74.6929 18.8867C78.0342 18.8867 80.2366 21.4296 80.2366 25.3576ZM77.4591 25.3576C77.4591 22.7914 76.0817 21.1042 73.9801 21.1042C71.9155 21.1042 70.5267 22.8269 70.5267 25.3576C70.5267 27.9115 71.9155 29.6218 73.9801 29.6218C76.0817 29.6218 77.4591 27.947 77.4591 25.3576Z" fill="white"/>
<path d="M89.813 26.8507C90.0133 28.5747 91.7528 29.7067 94.1298 29.7067C96.4075 29.7067 98.0461 28.5746 98.0461 27.0201C98.0461 25.6707 97.0578 24.8627 94.7177 24.309L92.3775 23.7662C89.0619 22.9951 87.5226 21.5022 87.5226 19.0795C87.5226 16.0799 90.2376 14.0195 94.0929 14.0195C97.9084 14.0195 100.524 16.0799 100.612 19.0795H97.8842C97.7209 17.3445 96.2314 16.2973 94.0545 16.2973C91.8777 16.2973 90.3881 17.3569 90.3881 18.899C90.3881 20.1281 91.3395 20.8514 93.6669 21.405L95.6562 21.8754C99.361 22.7189 100.9 24.1518 100.9 26.6947C100.9 29.9472 98.2094 31.9843 93.9295 31.9843C89.9252 31.9843 87.2215 29.9951 87.0469 26.8505L89.813 26.8507Z" fill="white"/>
<path d="M106.732 16.0197V19.0193H109.236V21.0797H106.732V28.0674C106.732 29.1529 107.233 29.6588 108.334 29.6588C108.631 29.6538 108.928 29.6337 109.223 29.5986V31.6466C108.728 31.7357 108.225 31.776 107.722 31.767C105.057 31.767 104.017 30.8031 104.017 28.3449V21.0797H102.103V19.0193H104.017V16.0197H106.732Z" fill="white"/>
<path d="M110.685 25.3576C110.685 21.3695 113.125 18.8635 116.929 18.8635C120.746 18.8635 123.174 21.3695 123.174 25.3576C123.174 29.3566 120.759 31.8518 116.929 31.8518C113.101 31.8518 110.685 29.3566 110.685 25.3576ZM120.421 25.3576C120.421 22.6219 119.119 21.0072 116.929 21.0072C114.739 21.0072 113.439 22.6342 113.439 25.3576C113.439 28.1043 114.739 29.7066 116.929 29.7066C119.119 29.7066 120.421 28.1043 120.421 25.3576Z" fill="white"/>
<path d="M125.402 19.0195H127.98V21.1769H128.042C128.216 20.5031 128.626 19.9076 129.203 19.4906C129.78 19.0736 130.488 18.8604 131.209 18.8869C131.52 18.8858 131.831 18.9184 132.134 18.984V21.4175C131.741 21.3019 131.331 21.2488 130.92 21.2603C130.528 21.245 130.136 21.3116 129.773 21.4557C129.41 21.5997 129.083 21.8177 128.816 22.0948C128.548 22.3718 128.346 22.7013 128.223 23.0607C128.101 23.42 128.06 23.8007 128.104 24.1765V31.6947H125.402L125.402 19.0195Z" fill="white"/>
<path d="M144.593 27.9717C144.23 30.2726 141.902 31.8518 138.925 31.8518C135.095 31.8518 132.718 29.3812 132.718 25.4178C132.718 21.442 135.108 18.8635 138.811 18.8635C142.453 18.8635 144.744 21.2725 144.744 25.1156V26.007H135.446V26.1643C135.403 26.6307 135.464 27.1007 135.624 27.5428C135.784 27.985 136.04 28.3893 136.375 28.7289C136.71 29.0685 137.116 29.3355 137.567 29.5123C138.017 29.6892 138.501 29.7717 138.987 29.7545C139.626 29.8121 140.267 29.6697 140.814 29.3485C141.362 29.0273 141.788 28.5444 142.027 27.9717L144.593 27.9717ZM135.459 24.1887H142.04C142.064 23.7692 141.998 23.3495 141.846 22.9558C141.694 22.5621 141.459 22.203 141.156 21.9009C140.853 21.5988 140.488 21.3603 140.084 21.2004C139.681 21.0405 139.247 20.9627 138.811 20.9717C138.371 20.9692 137.935 21.0506 137.528 21.2112C137.121 21.3718 136.75 21.6085 136.439 21.9076C136.127 22.2067 135.88 22.5623 135.712 22.9538C135.543 23.3453 135.457 23.765 135.459 24.1887Z" fill="white"/>
<path d="M40.5431 1.22332C41.1096 1.18418 41.6781 1.26658 42.2076 1.46459C42.737 1.6626 43.2142 1.97127 43.6047 2.36834C43.9953 2.76542 44.2894 3.241 44.466 3.76078C44.6425 4.28056 44.697 4.83158 44.6256 5.3741C44.6256 8.04285 43.1275 9.5769 40.5431 9.5769H37.4092V1.22332H40.5431ZM38.7567 8.39552H40.3926C40.7974 8.41882 41.2025 8.35491 41.5784 8.20845C41.9544 8.06199 42.2917 7.83667 42.5657 7.54887C42.8398 7.26108 43.0438 6.91807 43.1628 6.5448C43.2819 6.17154 43.313 5.77742 43.2538 5.39112C43.3087 5.00636 43.2744 4.61468 43.1536 4.24415C43.0327 3.87362 42.8282 3.53341 42.5548 3.24791C42.2813 2.96241 41.9457 2.73868 41.5718 2.59275C41.198 2.44681 40.7953 2.3823 40.3926 2.40382H38.7567V8.39552Z" fill="white"/>
<path d="M46.1479 6.42207C46.1067 6.00779 46.1559 5.58979 46.2924 5.1949C46.4288 4.8 46.6495 4.43692 46.9402 4.12895C47.2309 3.82097 47.5853 3.5749 47.9806 3.40651C48.3759 3.23813 48.8034 3.15114 49.2356 3.15114C49.6679 3.15114 50.0954 3.23813 50.4907 3.40651C50.8859 3.5749 51.2403 3.82097 51.531 4.12895C51.8218 4.43692 52.0424 4.8 52.1789 5.1949C52.3153 5.58979 52.3646 6.00779 52.3234 6.42207C52.3653 6.83678 52.3167 7.25536 52.1806 7.65089C52.0445 8.04643 51.824 8.41017 51.5332 8.71875C51.2424 9.02733 50.8877 9.27392 50.4921 9.44267C50.0964 9.61142 49.6684 9.69859 49.2356 9.69859C48.8029 9.69859 48.3749 9.61142 47.9792 9.44267C47.5835 9.27392 47.2289 9.02733 46.9381 8.71875C46.6473 8.41017 46.4267 8.04643 46.2906 7.65089C46.1545 7.25536 46.1059 6.83678 46.1479 6.42207ZM50.9943 6.42207C50.9943 5.05558 50.3567 4.25646 49.2378 4.25646C48.1145 4.25646 47.4827 5.05558 47.4827 6.42209C47.4827 7.79953 48.1146 8.59249 49.2378 8.59249C50.3567 8.59248 50.9943 7.79405 50.9943 6.42207Z" fill="white"/>
<path d="M60.5323 9.57693H59.1918L57.8386 4.93395H57.7364L56.3888 9.57693H55.0611L53.2563 3.27283H54.5669L55.7398 8.08322H55.8364L57.1826 3.27283H58.4222L59.7684 8.08322H59.8706L61.0378 3.27283H62.33L60.5323 9.57693Z" fill="white"/>
<path d="M63.848 3.27289H65.0919V4.27435H65.1885C65.3523 3.91466 65.6286 3.61314 65.9788 3.41181C66.329 3.21048 66.7358 3.11938 67.1424 3.1512C67.461 3.12814 67.7809 3.17439 68.0784 3.28652C68.3759 3.39865 68.6433 3.5738 68.861 3.79898C69.0786 4.02416 69.2409 4.29361 69.3357 4.58736C69.4305 4.8811 69.4554 5.19163 69.4087 5.49592V9.57692H68.1165V5.80834C68.1165 4.79526 67.6593 4.29144 66.7036 4.29144C66.4873 4.28174 66.2714 4.31719 66.0706 4.39535C65.8699 4.47351 65.6891 4.59254 65.5406 4.74428C65.3921 4.89602 65.2794 5.07688 65.2103 5.27446C65.1412 5.47204 65.1173 5.68168 65.1402 5.889V9.57699H63.848L63.848 3.27289Z" fill="white"/>
<path d="M71.4677 0.81189H72.7599V9.57692H71.4677V0.81189Z" fill="white"/>
<path d="M74.5562 6.42219C74.515 6.00788 74.5643 5.58986 74.7008 5.19495C74.8372 4.80004 75.0579 4.43695 75.3487 4.12896C75.6395 3.82098 75.9939 3.5749 76.3892 3.40652C76.7845 3.23813 77.212 3.15114 77.6443 3.15114C78.0766 3.15114 78.5041 3.23813 78.8994 3.40652C79.2947 3.5749 79.6491 3.82098 79.9399 4.12896C80.2306 4.43695 80.4513 4.80004 80.5878 5.19495C80.7243 5.58986 80.7735 6.00788 80.7324 6.42219C80.7743 6.83692 80.7256 7.2555 80.5895 7.65103C80.4534 8.04656 80.2328 8.4103 79.942 8.71887C79.6511 9.02744 79.2965 9.27402 78.9008 9.44276C78.5051 9.6115 78.0771 9.69867 77.6443 9.69867C77.2115 9.69867 76.7835 9.6115 76.3878 9.44276C75.9921 9.27402 75.6374 9.02744 75.3466 8.71887C75.0558 8.4103 74.8352 8.04656 74.6991 7.65103C74.563 7.2555 74.5143 6.83692 74.5562 6.42219ZM79.4026 6.42219C79.4026 5.05569 78.765 4.25657 77.6461 4.25657C76.5228 4.25657 75.891 5.05569 75.891 6.42221C75.891 7.79965 76.5229 8.59261 77.6461 8.59261C78.765 8.5926 79.4026 7.79416 79.4026 6.42219Z" fill="white"/>
<path d="M82.0927 7.79411C82.0927 6.65934 82.9703 6.00514 84.528 5.91217L86.3016 5.81374V5.2696C86.3016 4.60377 85.8444 4.2278 84.9611 4.2278C84.2398 4.2278 83.7399 4.48278 83.5965 4.92849H82.3455C82.4776 3.84567 83.5355 3.15114 85.0208 3.15114C86.6623 3.15114 87.5881 3.93795 87.5881 5.2696V9.57692H86.3442V8.69099H86.242C86.0344 9.00878 85.743 9.26785 85.3975 9.44174C85.052 9.61563 84.6647 9.69813 84.2753 9.68079C84.0004 9.70831 83.7226 9.68008 83.4597 9.5979C83.1969 9.51572 82.9549 9.38143 82.7492 9.20367C82.5436 9.02591 82.3789 8.80864 82.2659 8.56586C82.1528 8.32308 82.0938 8.06018 82.0927 7.79411ZM86.3016 7.25543V6.72838L84.7027 6.82682C83.801 6.88492 83.392 7.18023 83.392 7.73599C83.392 8.30337 83.9032 8.63355 84.6062 8.63355C84.8121 8.65362 85.0202 8.6336 85.2179 8.57467C85.4157 8.51574 85.5991 8.41912 85.7573 8.29054C85.9155 8.16196 86.0452 8.00406 86.1387 7.82623C86.2322 7.64841 86.2876 7.45429 86.3016 7.25543Z" fill="white"/>
<path d="M89.2864 6.42216C89.2864 4.43017 90.35 3.16826 92.0043 3.16826C92.4135 3.1501 92.8196 3.24447 93.1752 3.44032C93.5307 3.63617 93.821 3.92542 94.0121 4.27426H94.1087V0.81189H95.4009V9.57692H94.1627V8.58092H94.0604C93.8545 8.92741 93.5541 9.21306 93.1917 9.40693C92.8292 9.60081 92.4186 9.69552 92.0043 9.68082C90.3386 9.68089 89.2864 8.41894 89.2864 6.42216ZM90.6213 6.42216C90.6213 7.75927 91.2759 8.56387 92.3707 8.56387C93.4598 8.56387 94.1329 7.74767 94.1329 6.42764C94.1329 5.11377 93.4527 4.28593 92.3707 4.28593C91.2829 4.28593 90.6213 5.09599 90.6213 6.42216Z" fill="white"/>
<path d="M100.747 6.42207C100.706 6.00779 100.755 5.58979 100.892 5.1949C101.028 4.8 101.249 4.43692 101.54 4.12895C101.83 3.82097 102.185 3.5749 102.58 3.40651C102.975 3.23813 103.403 3.15114 103.835 3.15114C104.267 3.15114 104.695 3.23813 105.09 3.40651C105.485 3.5749 105.84 3.82097 106.13 4.12895C106.421 4.43692 106.642 4.8 106.778 5.1949C106.915 5.58979 106.964 6.00779 106.923 6.42207C106.965 6.83678 106.916 7.25536 106.78 7.65089C106.644 8.04643 106.423 8.41017 106.133 8.71875C105.842 9.02733 105.487 9.27392 105.091 9.44267C104.696 9.61142 104.268 9.69859 103.835 9.69859C103.402 9.69859 102.974 9.61142 102.579 9.44267C102.183 9.27392 101.828 9.02733 101.537 8.71875C101.247 8.41017 101.026 8.04643 100.89 7.65089C100.754 7.25536 100.705 6.83678 100.747 6.42207ZM105.594 6.42207C105.594 5.05558 104.956 4.25646 103.837 4.25646C102.714 4.25646 102.082 5.05558 102.082 6.42209C102.082 7.79953 102.714 8.59249 103.837 8.59249C104.956 8.59248 105.594 7.79405 105.594 6.42207Z" fill="white"/>
<path d="M108.657 3.27289H109.9V4.27435H109.997C110.161 3.91466 110.437 3.61314 110.787 3.41181C111.138 3.21048 111.544 3.11938 111.951 3.1512C112.269 3.12814 112.589 3.17439 112.887 3.28652C113.184 3.39865 113.452 3.5738 113.67 3.79898C113.887 4.02416 114.049 4.29361 114.144 4.58736C114.239 4.8811 114.264 5.19163 114.217 5.49592V9.57692H112.925V5.80834C112.925 4.79526 112.468 4.29144 111.512 4.29144C111.296 4.28174 111.08 4.31719 110.879 4.39535C110.678 4.47351 110.498 4.59254 110.349 4.74428C110.201 4.89602 110.088 5.07688 110.019 5.27446C109.95 5.47204 109.926 5.68168 109.949 5.889V9.57699H108.657V3.27289Z" fill="white"/>
<path d="M121.519 1.70329V3.30153H122.937V4.34949H121.519V7.59109C121.519 8.25144 121.801 8.5406 122.445 8.5406C122.609 8.54009 122.774 8.5305 122.937 8.51188V9.5482C122.705 9.58818 122.47 9.60944 122.234 9.61178C120.797 9.61178 120.225 9.12505 120.225 7.90963V4.34943H119.186V3.30147H120.225V1.70329H121.519Z" fill="white"/>
<path d="M124.702 0.81189H125.983V4.28592H126.085C126.257 3.92287 126.541 3.61964 126.898 3.41756C127.256 3.21547 127.669 3.12435 128.082 3.15662C128.399 3.14002 128.716 3.19096 129.01 3.30582C129.304 3.42068 129.568 3.59662 129.783 3.8211C129.999 4.04557 130.16 4.31304 130.256 4.60443C130.351 4.89582 130.379 5.20394 130.337 5.50682V9.57694H129.043V5.81374C129.043 4.8068 128.556 4.29684 127.643 4.29684C127.421 4.2793 127.198 4.3087 126.989 4.38297C126.78 4.45725 126.59 4.57461 126.433 4.72684C126.276 4.87907 126.155 5.0625 126.08 5.26429C126.004 5.46609 125.975 5.68137 125.995 5.89508V9.57691H124.702L124.702 0.81189Z" fill="white"/>
<path d="M137.871 7.87488C137.696 8.45103 137.315 8.94941 136.797 9.28282C136.278 9.61623 135.654 9.76344 135.034 9.6987C134.603 9.70966 134.174 9.63012 133.778 9.46558C133.382 9.30103 133.027 9.05545 132.74 8.74585C132.452 8.43626 132.237 8.07008 132.111 7.67273C131.985 7.27538 131.951 6.85638 132.01 6.44481C131.952 6.03197 131.987 5.61206 132.113 5.21352C132.239 4.81498 132.452 4.4471 132.738 4.1348C133.025 3.8225 133.377 3.57306 133.772 3.40337C134.167 3.23368 134.596 3.1477 135.028 3.15125C136.85 3.15125 137.949 4.34965 137.949 6.32925V6.76338H133.326V6.8331C133.306 7.06444 133.336 7.2973 133.415 7.51675C133.493 7.7362 133.619 7.9374 133.783 8.10743C133.947 8.27747 134.146 8.4126 134.368 8.50416C134.59 8.59571 134.829 8.64167 135.07 8.6391C135.379 8.67482 135.692 8.62124 135.969 8.48515C136.247 8.34906 136.476 8.13662 136.627 7.87484L137.871 7.87488ZM133.326 5.84324H136.633C136.649 5.63166 136.619 5.41914 136.545 5.21934C136.471 5.01953 136.355 4.83686 136.203 4.68306C136.051 4.52926 135.867 4.40773 135.664 4.32629C135.461 4.24484 135.242 4.20528 135.021 4.21014C134.798 4.20744 134.576 4.24784 134.369 4.32896C134.162 4.41008 133.974 4.53029 133.816 4.68248C133.658 4.83468 133.533 5.0158 133.449 5.21515C133.365 5.41451 133.323 5.62806 133.326 5.84324Z" fill="white"/>
<path d="M21.4561 18.4357C21.4717 17.2255 21.7932 16.0388 22.3906 14.9862C22.988 13.9336 23.842 13.0492 24.8731 12.4153C24.2181 11.4798 23.354 10.7099 22.3494 10.1668C21.3448 9.62371 20.2274 9.32234 19.0859 9.28662C16.651 9.03105 14.2905 10.7436 13.0497 10.7436C11.7849 10.7436 9.87456 9.312 7.8174 9.35432C6.48677 9.39731 5.18997 9.78425 4.05335 10.4774C2.91673 11.1706 1.97905 12.1464 1.33167 13.3097C-1.47263 18.1649 0.619124 25.3005 3.30541 29.225C4.64941 31.1468 6.22017 33.2935 8.27547 33.2173C10.2867 33.1339 11.0379 31.9348 13.4656 31.9348C15.8708 31.9348 16.5755 33.2173 18.6726 33.1689C20.8307 33.1339 22.1904 31.2386 23.4873 29.2987C24.453 27.9294 25.196 26.416 25.689 24.8145C24.4352 24.2842 23.3652 23.3966 22.6125 22.2622C21.8597 21.1279 21.4576 19.7971 21.4561 18.4357Z" fill="white"/>
<path d="M17.4954 6.70569C18.6721 5.29308 19.2518 3.47742 19.1114 1.64429C17.3136 1.83311 15.653 2.69232 14.4604 4.05072C13.8773 4.71434 13.4307 5.48637 13.1462 6.32268C12.8616 7.159 12.7447 8.0432 12.802 8.92474C13.7012 8.93399 14.5908 8.7391 15.4038 8.35472C16.2167 7.97034 16.9319 7.40651 17.4954 6.70569Z" fill="white"/>
</svg>
