<svg width="169" height="39" viewBox="0 0 169 39" fill="none" xmlns="http://www.w3.org/2000/svg">
<path d="M84.797 20.5405C81.3866 20.5405 78.607 23.1331 78.607 26.7074C78.607 30.2584 81.3866 32.8742 84.797 32.8742C88.2074 32.8742 90.9871 30.2584 90.9871 26.7074C90.9871 23.1331 88.2074 20.5405 84.797 20.5405ZM84.797 30.4455C82.928 30.4455 81.3156 28.9041 81.3156 26.7074C81.3156 24.4874 82.928 22.9693 84.797 22.9693C86.6661 22.9693 88.2771 24.4874 88.2771 26.7074C88.2771 28.9027 86.6661 30.4455 84.797 30.4455ZM71.2917 20.5405C67.8813 20.5405 65.1017 23.1331 65.1017 26.7074C65.1017 30.2584 67.8813 32.8742 71.2917 32.8742C74.7021 32.8742 77.4818 30.2584 77.4818 26.7074C77.4832 23.1331 74.7021 20.5405 71.2917 20.5405ZM71.2917 30.4455C69.4227 30.4455 67.8117 28.9041 67.8117 26.7074C67.8117 24.4874 69.4241 22.9693 71.2917 22.9693C73.1608 22.9693 74.7717 24.4874 74.7717 26.7074C74.7732 28.9027 73.1608 30.4455 71.2917 30.4455ZM55.2286 22.4328V25.0486H61.4897C61.3027 26.5203 60.8126 27.5948 60.0644 28.343C59.1538 29.2536 57.7284 30.2584 55.2286 30.2584C51.3745 30.2584 48.3614 27.1511 48.3614 23.297C48.3614 19.4429 51.3745 16.3355 55.2286 16.3355C57.3079 16.3355 58.8261 17.1533 59.9469 18.2046L61.7928 16.3587C60.2282 14.8638 58.1489 13.7183 55.2286 13.7183C49.9492 13.7183 45.5107 18.0161 45.5107 23.2955C45.5107 28.575 49.9492 32.8728 55.2286 32.8728C58.0779 32.8728 60.2282 31.939 61.9102 30.1859C63.6386 28.4575 64.1766 26.0273 64.1766 24.0655C64.1766 23.4579 64.1302 22.8968 64.0359 22.4299H55.2286V22.4328ZM120.925 24.4642C120.412 23.0853 118.846 20.5391 115.646 20.5391C112.469 20.5391 109.83 23.0389 109.83 26.7059C109.83 30.1627 112.446 32.8728 115.95 32.8728C118.776 32.8728 120.412 31.1444 121.089 30.1395L118.987 28.7374C118.286 29.7654 117.328 30.4426 115.95 30.4426C114.571 30.4426 113.591 29.8118 112.96 28.5735L121.207 25.1631L120.925 24.4642ZM112.515 26.5203C112.446 24.138 114.361 22.9229 115.739 22.9229C116.813 22.9229 117.724 23.4594 118.028 24.2308L112.515 26.5203ZM105.81 32.5001H108.52V14.3737H105.81V32.5001ZM101.372 21.918H101.279C100.672 21.1945 99.5044 20.5391 98.0326 20.5391C94.9485 20.5391 92.1224 23.2491 92.1224 26.7291C92.1224 30.1859 94.9485 32.8728 98.0326 32.8728C99.5044 32.8728 100.672 32.2188 101.279 31.4706H101.372V32.358C101.372 34.7172 100.11 35.9787 98.0776 35.9787C96.4188 35.9787 95.3907 34.7868 94.9702 33.7834L92.6111 34.765C93.2882 36.4006 95.0877 38.4089 98.0776 38.4089C101.255 38.4089 103.941 36.5398 103.941 31.9854V20.9132H101.372V21.918ZM98.2661 30.4455C96.397 30.4455 94.8325 28.8809 94.8325 26.7306C94.8325 24.5585 96.397 22.9693 98.2661 22.9693C100.112 22.9693 101.559 24.557 101.559 26.7306C101.559 28.8795 100.112 30.4455 98.2661 30.4455ZM133.619 14.3737H127.136V32.5001H129.84V25.6329H133.617C136.616 25.6329 139.564 23.4623 139.564 20.004C139.564 16.5458 136.617 14.3737 133.619 14.3737ZM133.688 23.1099H129.84V16.8967H133.688C135.711 16.8967 136.859 18.5714 136.859 20.004C136.859 21.4076 135.711 23.1099 133.688 23.1099ZM150.41 20.5072C148.451 20.5072 146.422 21.3699 145.582 23.2825L147.985 24.2859C148.498 23.2825 149.454 22.9562 150.457 22.9562C151.857 22.9562 153.279 23.7958 153.302 25.2878V25.4749C152.812 25.195 151.762 24.7745 150.481 24.7745C147.892 24.7745 145.256 26.197 145.256 28.8563C145.256 31.2821 147.379 32.8438 149.757 32.8438C151.577 32.8438 152.579 32.0274 153.208 31.0719H153.301V32.4711H155.912V25.5213C155.912 22.3023 153.511 20.5072 150.41 20.5072ZM150.082 30.4411C149.196 30.4411 147.959 29.9974 147.959 28.9027C147.959 27.5034 149.499 26.9669 150.827 26.9669C152.016 26.9669 152.576 27.2236 153.299 27.573C153.091 29.2521 151.645 30.4411 150.082 30.4411ZM165.427 20.903L162.326 28.762H162.233L159.015 20.903H156.101L160.928 31.8868L158.176 37.9971H160.997L168.437 20.903H165.427ZM141.057 32.5001H143.763V14.3737H141.057V32.5001Z" fill="white"/>
<path fill-rule="evenodd" clip-rule="evenodd" d="M89.598 8.2041C88.7676 9.0584 87.736 9.48344 86.5017 9.48344C85.2674 9.48344 84.2357 9.05699 83.4068 8.2041C82.5764 7.35122 82.1626 6.30692 82.1626 5.07262C82.1626 3.83833 82.5764 2.79403 83.4068 1.94114C84.2357 1.08685 85.2674 0.6604 86.5017 0.6604C87.7289 0.6604 88.7592 1.08966 89.5923 1.94677C90.4255 2.80388 90.8421 3.84536 90.8421 5.07262C90.8421 6.30833 90.4269 7.35262 89.598 8.2041ZM84.2076 7.49759C84.8325 8.13092 85.5967 8.44618 86.5017 8.44618C87.4066 8.44618 88.1709 8.12951 88.7957 7.49759C89.4206 6.86425 89.7345 6.0564 89.7345 5.07403C89.7345 4.09166 89.4206 3.2824 88.7957 2.65047C88.1723 2.01714 87.4066 1.70188 86.5017 1.70188C85.5967 1.70188 84.8325 2.01855 84.2076 2.65047C83.5841 3.28381 83.2703 4.09166 83.2703 5.07403C83.2703 6.0564 83.5841 6.86425 84.2076 7.49759Z" fill="white"/>
<path d="M52.7365 5.41603C52.7365 6.59543 52.3875 7.53418 51.688 8.23506C50.8943 9.06825 49.8584 9.48484 48.5861 9.48484C47.3673 9.48484 46.33 9.06262 45.4786 8.21818C44.6257 7.37232 44.1992 6.32521 44.1992 5.07544C44.1992 3.82425 44.6257 2.77714 45.4786 1.93269C46.33 1.08684 47.3673 0.66462 48.5861 0.66462C49.1913 0.66462 49.7697 0.782842 50.3186 1.01788C50.8689 1.25432 51.3094 1.56818 51.6388 1.96084L50.8971 2.70395C50.3383 2.03543 49.5685 1.70188 48.5847 1.70188C47.6952 1.70188 46.9268 2.01432 46.278 2.63921C45.6305 3.2641 45.3068 4.07477 45.3068 5.07403C45.3068 6.07329 45.6306 6.88395 46.2794 7.51025C46.9282 8.13514 47.6966 8.44758 48.5861 8.44758C49.5291 8.44758 50.3158 8.13373 50.9449 7.50462C51.3531 7.09507 51.5895 6.52506 51.6528 5.79462H48.5861V4.77847H52.6774C52.7183 4.99943 52.7365 5.21195 52.7365 5.41603Z" fill="white"/>
<path d="M59.2247 1.88907H55.3797V4.56596H58.8475V5.5807H55.3797V8.25759H59.2247V9.29625H54.2946V0.85181H59.2247V1.88907Z" fill="white"/>
<path d="M62.7137 9.29625H63.7988V1.88907H66.1576V0.85181H60.3549V1.88907H62.7137V9.29625Z" fill="white"/>
<path d="M70.3573 9.29625V0.85181H71.4424V9.29625H70.3573Z" fill="white"/>
<path d="M75.1678 9.29625H76.2529V1.88907H78.6117V0.85181H72.809V1.88907H75.1678V9.29625Z" fill="white"/>
<path d="M92.3649 0.85181V9.29625H93.4472V4.03537L93.4008 2.4084H93.4472L97.7412 9.29625H98.8742V0.85181H97.7891V5.79462L97.8355 7.42159H97.7891L93.6851 0.85181H92.3649Z" fill="white"/>
<path fill-rule="evenodd" clip-rule="evenodd" d="M89.598 8.2041C88.7676 9.0584 87.736 9.48344 86.5017 9.48344C85.2674 9.48344 84.2357 9.05699 83.4068 8.2041C82.5764 7.35122 82.1626 6.30692 82.1626 5.07262C82.1626 3.83833 82.5764 2.79403 83.4068 1.94114C84.2357 1.08685 85.2674 0.6604 86.5017 0.6604C87.7289 0.6604 88.7592 1.08966 89.5923 1.94677C90.4255 2.80388 90.8421 3.84536 90.8421 5.07262C90.8421 6.30833 90.4269 7.35262 89.598 8.2041ZM84.2076 7.49759C84.8325 8.13092 85.5967 8.44618 86.5017 8.44618C87.4066 8.44618 88.1709 8.12951 88.7957 7.49759C89.4206 6.86425 89.7345 6.0564 89.7345 5.07403C89.7345 4.09166 89.4206 3.2824 88.7957 2.65047C88.1723 2.01714 87.4066 1.70188 86.5017 1.70188C85.5967 1.70188 84.8325 2.01855 84.2076 2.65047C83.5841 3.28381 83.2703 4.09166 83.2703 5.07403C83.2703 6.0564 83.5841 6.86425 84.2076 7.49759Z" stroke="white" stroke-width="0.29" stroke-miterlimit="10"/>
<path d="M52.7365 5.41603C52.7365 6.59543 52.3875 7.53418 51.688 8.23506C50.8943 9.06825 49.8584 9.48484 48.5861 9.48484C47.3673 9.48484 46.33 9.06262 45.4786 8.21818C44.6257 7.37232 44.1992 6.32521 44.1992 5.07544C44.1992 3.82425 44.6257 2.77714 45.4786 1.93269C46.33 1.08684 47.3673 0.66462 48.5861 0.66462C49.1913 0.66462 49.7697 0.782842 50.3186 1.01788C50.8689 1.25432 51.3094 1.56818 51.6388 1.96084L50.8971 2.70395C50.3383 2.03543 49.5685 1.70188 48.5847 1.70188C47.6952 1.70188 46.9268 2.01432 46.278 2.63921C45.6305 3.2641 45.3068 4.07477 45.3068 5.07403C45.3068 6.07329 45.6306 6.88395 46.2794 7.51025C46.9282 8.13514 47.6966 8.44758 48.5861 8.44758C49.5291 8.44758 50.3158 8.13373 50.9449 7.50462C51.3531 7.09507 51.5895 6.52506 51.6528 5.79462H48.5861V4.77847H52.6774C52.7183 4.99943 52.7365 5.21195 52.7365 5.41603Z" stroke="white" stroke-width="0.29" stroke-miterlimit="10"/>
<path d="M59.2247 1.88907H55.3797V4.56596H58.8475V5.5807H55.3797V8.25759H59.2247V9.29625H54.2946V0.85181H59.2247V1.88907Z" stroke="white" stroke-width="0.29" stroke-miterlimit="10"/>
<path d="M62.7137 9.29625H63.7988V1.88907H66.1576V0.85181H60.3549V1.88907H62.7137V9.29625Z" stroke="white" stroke-width="0.29" stroke-miterlimit="10"/>
<path d="M70.3573 9.29625V0.85181H71.4424V9.29625H70.3573Z" stroke="white" stroke-width="0.29" stroke-miterlimit="10"/>
<path d="M75.1678 9.29625H76.2529V1.88907H78.6117V0.85181H72.809V1.88907H75.1678V9.29625Z" stroke="white" stroke-width="0.29" stroke-miterlimit="10"/>
<path d="M92.3649 0.85181V9.29625H93.4472V4.03537L93.4008 2.4084H93.4472L97.7412 9.29625H98.8742V0.85181H97.7891V5.79462L97.8355 7.42159H97.7891L93.6851 0.85181H92.3649Z" stroke="white" stroke-width="0.29" stroke-miterlimit="10"/>
<path d="M1.13058 1.93019C0.708629 2.37679 0.459229 3.06989 0.459229 3.96744V36.0356C0.459229 36.9346 0.708629 37.6263 1.13058 38.0729L1.23788 38.1773L19.2019 20.2132V20.0015V19.7898L1.23788 1.82434L1.13058 1.93019Z" fill="url(#paint0_linear_37_1034)"/>
<path d="M25.1904 26.2046L19.2034 20.2146V20.0029V19.7912L25.1919 13.8027L25.3267 13.8796L32.4216 17.9106C34.4487 19.0619 34.4487 20.9454 32.4216 22.0982L25.3267 26.1292L25.1904 26.2046Z" fill="url(#paint1_linear_37_1034)"/>
<path d="M25.3268 26.1264L19.2034 20.0016L1.13062 38.0729C1.79907 38.7805 2.90106 38.8675 4.14371 38.1614L25.3268 26.1264Z" fill="url(#paint2_linear_37_1034)"/>
<path d="M25.3268 13.8767L4.14518 1.84171C2.90253 1.13556 1.80053 1.22401 1.13208 1.93016L19.2034 20.0015L25.3268 13.8767Z" fill="url(#paint3_linear_37_1034)"/>
<path opacity="0.2" d="M25.1919 25.9915L4.14516 37.9496C2.96776 38.6181 1.91506 38.5746 1.23936 37.9656L1.13062 38.0743L1.23791 38.1787C1.91361 38.7877 2.96631 38.8327 4.14371 38.1628L25.3253 26.1278L25.1919 25.9915Z" fill="black"/>
<path opacity="0.12" d="M1.13058 37.8612C0.708629 37.4146 0.459229 36.7215 0.459229 35.824V36.0357C0.459229 36.9332 0.708629 37.6263 1.13058 38.0729L1.23933 37.9642L1.13058 37.8612Z" fill="black"/>
<path opacity="0.12" d="M32.4216 21.8836L25.1919 25.9914L25.3267 26.1263L32.4216 22.0953C33.4351 21.5196 33.9412 20.7613 33.9412 20.0029C33.8556 20.6888 33.3394 21.3616 32.4216 21.8836Z" fill="black"/>
<path opacity="0.25" d="M4.14368 2.05339L32.4201 18.1194C33.3394 18.6414 33.8542 19.3142 33.9397 20.0015C33.9397 19.2431 33.4337 18.4833 32.4201 17.9077L4.14368 1.84169C2.11658 0.690387 0.459229 1.64594 0.459229 3.96739V4.18054C0.459229 1.85909 2.11803 0.902087 4.14368 2.05339Z" fill="white"/>
<defs>
<linearGradient id="paint0_linear_37_1034" x1="17.6092" y1="3.6293" x2="-6.72523" y2="27.9638" gradientUnits="userSpaceOnUse">
<stop stop-color="#00A0FF"/>
<stop offset="0.0066" stop-color="#00A1FF"/>
<stop offset="0.2601" stop-color="#00BEFF"/>
<stop offset="0.5122" stop-color="#00D2FF"/>
<stop offset="0.7604" stop-color="#00DFFF"/>
<stop offset="1" stop-color="#00E3FF"/>
</linearGradient>
<linearGradient id="paint1_linear_37_1034" x1="35.0596" y1="20.0022" x2="-0.0259498" y2="20.0022" gradientUnits="userSpaceOnUse">
<stop stop-color="#FFE000"/>
<stop offset="0.4087" stop-color="#FFBD00"/>
<stop offset="0.7754" stop-color="#FFA500"/>
<stop offset="1" stop-color="#FF9C00"/>
</linearGradient>
<linearGradient id="paint2_linear_37_1034" x1="21.9989" y1="23.3296" x2="-11.0007" y2="56.3292" gradientUnits="userSpaceOnUse">
<stop stop-color="#FF3A44"/>
<stop offset="1" stop-color="#C31162"/>
</linearGradient>
<linearGradient id="paint3_linear_37_1034" x1="-3.41918" y1="-8.74431" x2="11.3166" y2="5.99132" gradientUnits="userSpaceOnUse">
<stop stop-color="#32A071"/>
<stop offset="0.0685" stop-color="#2DA771"/>
<stop offset="0.4762" stop-color="#15CF74"/>
<stop offset="0.8009" stop-color="#06E775"/>
<stop offset="1" stop-color="#00F076"/>
</linearGradient>
</defs>
</svg>
