<svg width="130" height="45" viewBox="0 0 130 45" fill="none" xmlns="http://www.w3.org/2000/svg">
<path fill-rule="evenodd" clip-rule="evenodd" d="M5.9223 3.21104C8.4887 1.19803 11.7078 0 15.1985 0H16.9443C23.927 0 29.8069 4.78648 31.5891 11.306C31.7714 11.9727 31.3876 12.6634 30.7318 12.8487C30.0761 13.034 29.3968 12.6437 29.2145 11.977C27.721 6.51363 22.7914 2.5058 16.9443 2.5058H15.1985C12.2714 2.5058 9.57804 3.50843 7.42777 5.19504C6.88891 5.61771 6.11506 5.51622 5.69934 4.96835C5.28361 4.42049 5.38344 3.63371 5.9223 3.21104ZM4.67074 6.03828C5.21899 6.44828 5.33653 7.23252 4.93327 7.78993C3.38121 9.93528 2.46463 12.5832 2.46463 15.4524V29.5476C2.46463 35.4577 6.3608 40.446 11.6867 41.9959C12.341 42.1863 12.7196 42.88 12.5323 43.5452C12.345 44.2105 11.6627 44.5954 11.0084 44.405C4.65328 42.5555 0 36.6056 0 29.5476V15.4524C0 12.0312 1.09505 8.86628 2.94787 6.3052C3.35113 5.74779 4.12249 5.62828 4.67074 6.03828ZM30.9105 14.1995C31.5911 14.1995 32.1429 14.7605 32.1429 15.4524V29.5476C32.1429 38.0817 25.3382 45 16.9443 45H15.1985C14.518 45 13.9662 44.4391 13.9662 43.7471C13.9662 43.0551 14.518 42.4942 15.1985 42.4942H16.9443C23.9771 42.4942 29.6782 36.6978 29.6782 29.5476V15.4524C29.6782 14.7605 30.23 14.1995 30.9105 14.1995Z" fill="url(#paint0_linear_37_1007)"/>
<path fill-rule="evenodd" clip-rule="evenodd" d="M4.3131 15.9223C4.3131 9.31984 9.57748 3.96752 16.0714 3.96752C16.752 3.96752 17.3037 4.52846 17.3037 5.22042C17.3037 5.91238 16.752 6.47332 16.0714 6.47332C10.9387 6.47332 6.77773 10.7038 6.77773 15.9223V29.8086C6.77773 30.5005 6.226 31.0615 5.54541 31.0615C4.86482 31.0615 4.3131 30.5005 4.3131 29.8086V15.9223ZM19.2066 5.62611C19.4824 4.99353 20.2104 4.70805 20.8326 4.98849C24.9521 6.84525 27.8298 11.0407 27.8298 15.9223V29.0777C27.8298 29.1134 27.8298 29.15 27.8298 29.1873C27.8307 30.4053 27.8323 32.4483 26.8839 34.0553C26.5338 34.6486 25.7768 34.841 25.1932 34.485C24.6096 34.129 24.4204 33.3594 24.7705 32.7661C25.3335 31.8121 25.3651 30.4425 25.3651 29.0777V15.9223C25.3651 12.0674 23.0945 8.74897 19.8338 7.27927C19.2116 6.99884 18.9308 6.25869 19.2066 5.62611ZM6.03221 32.5404C6.64673 32.243 7.38203 32.5084 7.67454 33.1332C9.16882 36.3249 12.3684 38.5267 16.0714 38.5267C18.5438 38.5267 20.7884 37.5468 22.4544 35.9457C22.949 35.4703 23.7289 35.4926 24.1965 35.9955C24.664 36.4983 24.642 37.2913 24.1475 37.7666C22.0422 39.79 19.1982 41.0325 16.0714 41.0325C11.3822 41.0325 7.33662 38.2417 5.44916 34.2102C5.15665 33.5854 5.41769 32.8378 6.03221 32.5404Z" fill="url(#paint1_linear_37_1007)"/>
<path fill-rule="evenodd" clip-rule="evenodd" d="M13.8635 9.50116C14.5441 9.50116 15.0958 10.0621 15.0958 10.7541L15.0958 12.9466C15.0958 13.6386 14.5441 14.1995 13.8635 14.1995C13.1829 14.1995 12.6312 13.6386 12.6312 12.9466L12.6312 10.7541C12.6312 10.0621 13.1829 9.50116 13.8635 9.50116Z" fill="url(#paint2_linear_37_1007)"/>
<path fill-rule="evenodd" clip-rule="evenodd" d="M13.8635 31.1137C14.5441 31.1137 15.0958 31.6746 15.0958 32.3666L15.0958 34.5592C15.0958 35.2511 14.5441 35.8121 13.8635 35.8121C13.1829 35.8121 12.6312 35.2511 12.6312 34.5592L12.6312 32.3666C12.6312 31.6746 13.1829 31.1137 13.8635 31.1137Z" fill="url(#paint3_linear_37_1007)"/>
<path fill-rule="evenodd" clip-rule="evenodd" d="M13.7608 31.949C13.7608 32.6409 13.2091 33.2019 12.5285 33.2019H10.372C9.69139 33.2019 9.13966 32.6409 9.13966 31.949C9.13966 31.257 9.69139 30.6961 10.372 30.6961H12.5285C13.2091 30.6961 13.7608 31.257 13.7608 31.949Z" fill="url(#paint4_linear_37_1007)"/>
<path fill-rule="evenodd" clip-rule="evenodd" d="M13.7608 13.2599C13.7608 13.9518 13.2091 14.5128 12.5285 14.5128L10.372 14.5128C9.69139 14.5128 9.13966 13.9518 9.13966 13.2599C9.13966 12.5679 9.69139 12.007 10.372 12.007L12.5285 12.007C13.2091 12.007 13.7608 12.5679 13.7608 13.2599Z" fill="url(#paint5_linear_37_1007)"/>
<path fill-rule="evenodd" clip-rule="evenodd" d="M17.4578 9.50116C18.1384 9.50116 18.6901 10.0621 18.6901 10.7541L18.6901 12.9466C18.6901 13.6386 18.1384 14.1995 17.4578 14.1995C16.7772 14.1995 16.2255 13.6386 16.2255 12.9466L16.2255 10.7541C16.2255 10.0621 16.7772 9.50116 17.4578 9.50116Z" fill="url(#paint6_linear_37_1007)"/>
<path fill-rule="evenodd" clip-rule="evenodd" d="M17.4578 31.1137C18.1384 31.1137 18.6901 31.6746 18.6901 32.3666L18.6901 34.5592C18.6901 35.2511 18.1384 35.8121 17.4578 35.8121C16.7772 35.8121 16.2255 35.2511 16.2255 34.5592L16.2255 32.3666C16.2255 31.6746 16.7772 31.1137 17.4578 31.1137Z" fill="url(#paint7_linear_37_1007)"/>
<path d="M19.0536 21.7409C19.3021 21.7963 19.5003 21.8349 19.6955 21.8861C22.2053 22.5355 23.7457 24.774 23.5629 27.404C23.3575 30.3671 21.3129 32.5201 18.3574 33.0421C17.8606 33.1238 17.3582 33.1643 16.855 33.1632C15.2006 33.1778 13.5452 33.1695 11.8908 33.1684C10.982 33.1684 10.4747 32.662 10.4747 31.7391C10.4747 25.6458 10.4747 19.5522 10.4747 13.4582C10.4747 12.53 10.9789 12.0184 11.8836 12.0163C13.3603 12.0163 14.836 12.0069 16.3117 12.0163C17.7299 12.0268 19.0547 12.3682 20.173 13.3016C21.7955 14.6589 22.2443 16.4224 21.8058 18.451C21.5347 19.7039 20.9113 20.7344 19.791 21.3953C19.5743 21.5196 19.335 21.6094 19.0536 21.7409ZM13.0615 23.0502C13.0502 23.1818 13.043 23.2319 13.043 23.282C13.043 25.7471 13.043 28.2122 13.0379 30.6772C13.0379 30.8861 13.1262 30.9132 13.2987 30.9122C14.4417 30.9059 15.5847 30.9174 16.7276 30.9038C17.0853 30.902 17.4421 30.867 17.7936 30.7994C19.944 30.3671 21.2092 28.6068 20.9596 26.4142C20.873 25.6061 20.5194 24.8517 19.9564 24.2744C19.3934 23.6971 18.6545 23.331 17.8603 23.2361C16.285 23.0429 14.6799 23.1014 13.0615 23.0502ZM13.0615 14.3029V20.9359C13.0898 20.9465 13.119 20.9542 13.1488 20.9589C14.1891 20.9589 15.2304 20.9788 16.2696 20.9453C17.0111 20.9326 17.725 20.6575 18.2886 20.1675C19.3638 19.2351 19.7263 17.4101 19.1101 16.0319C18.802 15.3428 18.3225 14.827 17.6252 14.5702C17.2198 14.4147 16.7936 14.3225 16.361 14.2966C15.3228 14.2559 14.2815 14.2789 13.2412 14.2778C13.1802 14.2821 13.1194 14.2905 13.0594 14.3029H13.0615Z" fill="url(#paint8_linear_37_1007)"/>
<path d="M48.9309 20.0807H45.8431V32.7669H43.3998V20.0807H41.4934V18.0691H43.3998V17.0231C43.3998 15.3781 43.8204 14.1801 44.6617 13.4291C46.3453 12.1544 47.7435 12.2758 49.7642 12.2758V14.3142C48.6902 14.3142 47.2091 14.2672 46.4875 14.9579C46.0579 15.3692 45.8431 16.0575 45.8431 17.0231V18.0691H48.9309V20.0807Z" fill="white"/>
<path d="M55.1897 15.6821C54.7243 15.6821 54.3305 15.5211 54.0083 15.1993C53.6861 14.8774 53.525 14.4841 53.525 14.0192C53.525 13.5543 53.6861 13.1609 54.0083 12.8391C54.3305 12.5172 54.7243 12.3563 55.1897 12.3563C55.6372 12.3563 56.0131 12.5172 56.3174 12.8391C56.6396 13.1609 56.8007 13.5543 56.8007 14.0192C56.8007 14.4841 56.6396 14.8774 56.3174 15.1993C56.0131 15.5211 55.6372 15.6821 55.1897 15.6821ZM56.3711 18.0691V32.7669H53.9277V18.0691H56.3711Z" fill="white"/>
<path d="M69.8523 17.8009C71.6423 17.8009 73.0922 18.3462 74.202 19.437C75.3118 20.5098 75.8667 22.0654 75.8667 24.1038V32.7669H73.4502V24.4524C73.4502 22.9862 73.0833 21.8687 72.3494 21.0998C71.6155 20.3131 70.6131 19.9197 69.3422 19.9197C68.0534 19.9197 67.0241 20.322 66.2544 21.1267C65.5026 21.9313 65.1267 23.1025 65.1267 24.6402V32.7669H62.6834V18.0691H65.1267V20.1611C65.61 19.4101 66.2634 18.829 67.0868 18.4178C67.9281 18.0065 68.8499 17.8009 69.8523 17.8009Z" fill="white"/>
<path d="M84.9863 20.0807V28.7437C84.9863 29.459 85.1385 29.9686 85.4428 30.2725C85.7471 30.5586 86.2751 30.7017 87.0269 30.7017H88.8259V32.7669H86.6242C85.2638 32.7669 84.2435 32.4539 83.5633 31.8281C82.8831 31.2023 82.543 30.1742 82.543 28.7437V20.0807H80.6366V18.0691H82.543V14.3678H84.9863V18.0691H88.8259V20.0807H84.9863Z" fill="white"/>
<path d="M93.0214 25.3643C93.0214 23.8624 93.3257 22.5482 93.9343 21.4217C94.5429 20.2773 95.3753 19.3923 96.4314 18.7664C97.5054 18.1406 98.6957 17.8277 100.002 17.8277C101.291 17.8277 102.41 18.1049 103.359 18.6592C104.307 19.2135 105.014 19.9108 105.48 20.7512V18.0691H107.95V32.7669H105.48V30.0311C104.997 30.8894 104.272 31.6046 103.305 32.1768C102.356 32.7311 101.246 33.0082 99.9756 33.0082C98.6689 33.0082 97.4875 32.6864 96.4314 32.0427C95.3753 31.399 94.5429 30.496 93.9343 29.3338C93.3257 28.1716 93.0214 26.8484 93.0214 25.3643ZM105.48 25.3912C105.48 24.2826 105.256 23.317 104.809 22.4945C104.361 21.672 103.752 21.0462 102.983 20.6171C102.231 20.1701 101.399 19.9466 100.486 19.9466C99.5728 19.9466 98.7405 20.1611 97.9887 20.5902C97.2369 21.0194 96.6372 21.6452 96.1897 22.4677C95.7422 23.2902 95.5185 24.2557 95.5185 25.3643C95.5185 26.4908 95.7422 27.4742 96.1897 28.3146C96.6372 29.1371 97.2369 29.7719 97.9887 30.2189C98.7405 30.648 99.5728 30.8626 100.486 30.8626C101.399 30.8626 102.231 30.648 102.983 30.2189C103.752 29.7719 104.361 29.1371 104.809 28.3146C105.256 27.4742 105.48 26.4997 105.48 25.3912Z" fill="white"/>
<path d="M116.67 20.778C117.154 19.9376 117.87 19.2403 118.818 18.686C119.785 18.1138 120.904 17.8277 122.175 17.8277C123.481 17.8277 124.663 18.1406 125.719 18.7664C126.793 19.3923 127.634 20.2773 128.243 21.4217C128.851 22.5482 129.156 23.8624 129.156 25.3643C129.156 26.8484 128.851 28.1716 128.243 29.3338C127.634 30.496 126.793 31.399 125.719 32.0427C124.663 32.6864 123.481 33.0082 122.175 33.0082C120.922 33.0082 119.812 32.7311 118.845 32.1768C117.897 31.6046 117.172 30.8983 116.67 30.058V39.7402H114.227V18.0691H116.67V20.778ZM126.659 25.3643C126.659 24.2557 126.435 23.2902 125.987 22.4677C125.54 21.6452 124.931 21.0194 124.162 20.5902C123.41 20.1611 122.577 19.9466 121.665 19.9466C120.77 19.9466 119.937 20.1701 119.168 20.6171C118.416 21.0462 117.807 21.681 117.342 22.5213C116.894 23.3438 116.67 24.3004 116.67 25.3912C116.67 26.4997 116.894 27.4742 117.342 28.3146C117.807 29.1371 118.416 29.7719 119.168 30.2189C119.937 30.648 120.77 30.8626 121.665 30.8626C122.577 30.8626 123.41 30.648 124.162 30.2189C124.931 29.7719 125.54 29.1371 125.987 28.3146C126.435 27.4742 126.659 26.4908 126.659 25.3643Z" fill="white"/>
<defs>
<linearGradient id="paint0_linear_37_1007" x1="16.0714" y1="0" x2="16.0714" y2="45" gradientUnits="userSpaceOnUse">
<stop stop-color="#2AF599"/>
<stop offset="1" stop-color="#05A6F4"/>
</linearGradient>
<linearGradient id="paint1_linear_37_1007" x1="16.0714" y1="0" x2="16.0714" y2="45" gradientUnits="userSpaceOnUse">
<stop stop-color="#2AF599"/>
<stop offset="1" stop-color="#05A6F4"/>
</linearGradient>
<linearGradient id="paint2_linear_37_1007" x1="16.0714" y1="0" x2="16.0714" y2="45" gradientUnits="userSpaceOnUse">
<stop stop-color="#2AF599"/>
<stop offset="1" stop-color="#05A6F4"/>
</linearGradient>
<linearGradient id="paint3_linear_37_1007" x1="16.0714" y1="0" x2="16.0714" y2="45" gradientUnits="userSpaceOnUse">
<stop stop-color="#2AF599"/>
<stop offset="1" stop-color="#05A6F4"/>
</linearGradient>
<linearGradient id="paint4_linear_37_1007" x1="16.0714" y1="0" x2="16.0714" y2="45" gradientUnits="userSpaceOnUse">
<stop stop-color="#2AF599"/>
<stop offset="1" stop-color="#05A6F4"/>
</linearGradient>
<linearGradient id="paint5_linear_37_1007" x1="16.0714" y1="0" x2="16.0714" y2="45" gradientUnits="userSpaceOnUse">
<stop stop-color="#2AF599"/>
<stop offset="1" stop-color="#05A6F4"/>
</linearGradient>
<linearGradient id="paint6_linear_37_1007" x1="16.0714" y1="0" x2="16.0714" y2="45" gradientUnits="userSpaceOnUse">
<stop stop-color="#2AF599"/>
<stop offset="1" stop-color="#05A6F4"/>
</linearGradient>
<linearGradient id="paint7_linear_37_1007" x1="16.0714" y1="0" x2="16.0714" y2="45" gradientUnits="userSpaceOnUse">
<stop stop-color="#2AF599"/>
<stop offset="1" stop-color="#05A6F4"/>
</linearGradient>
<linearGradient id="paint8_linear_37_1007" x1="16.0714" y1="0" x2="16.0714" y2="45" gradientUnits="userSpaceOnUse">
<stop stop-color="#2AF599"/>
<stop offset="1" stop-color="#05A6F4"/>
</linearGradient>
</defs>
</svg>
