<svg width="20" height="21" viewBox="0 0 20 21" fill="none" xmlns="http://www.w3.org/2000/svg">
<g clip-path="url(#clip0_425_423)">
<path d="M21.1711 5.99322C20.4357 6.31895 19.6456 6.53904 18.8149 6.63852C19.672 6.12597 20.3132 5.31928 20.6189 4.36897C19.8137 4.84699 18.9324 5.18347 18.0134 5.36377C17.3954 4.70427 16.5768 4.26714 15.6848 4.12025C14.7927 3.97336 13.8771 4.12493 13.0801 4.55143C12.2831 4.97792 11.6492 5.65548 11.277 6.47891C10.9047 7.30234 10.8149 8.22557 11.0214 9.10527C9.38984 9.02339 7.79373 8.59955 6.33667 7.86124C4.87961 7.12294 3.59415 6.08668 2.56373 4.81971C2.2114 5.42715 2.00881 6.13144 2.00881 6.8815C2.00841 7.55672 2.17478 8.2216 2.49315 8.81715C2.81152 9.4127 3.27205 9.9205 3.83387 10.2955C3.18231 10.2748 2.54512 10.0988 1.97534 9.78226V9.83508C1.97527 10.7821 2.30303 11.7 2.903 12.433C3.50298 13.166 4.33821 13.6689 5.26698 13.8565C4.66254 14.02 4.02883 14.0441 3.41372 13.927C3.67576 14.7418 4.1862 15.4544 4.87357 15.9649C5.56094 16.4754 6.39084 16.7583 7.24707 16.774C5.79356 17.9144 3.99849 18.533 2.15062 18.5303C1.82329 18.5304 1.49623 18.5113 1.17114 18.4731C3.04684 19.6784 5.23028 20.3182 7.46023 20.3157C15.0089 20.3157 19.1356 14.0669 19.1356 8.64748C19.1356 8.47141 19.1312 8.29358 19.1232 8.11751C19.9259 7.53734 20.6188 6.8189 21.1694 5.99586L21.1711 5.99322Z" fill="#1E2339"/>
</g>
<defs>
<clipPath id="clip0_425_423">
<rect width="20" height="20" fill="white" transform="translate(0 0.631348)"/>
</clipPath>
</defs>
</svg>
